<?xml version="1.0" encoding="UTF-8"?>
<svg id="Isolation_Mode" xmlns="http://www.w3.org/2000/svg" version="1.1" viewBox="0 0 416.82 846.4">
  <!-- Generator: Adobe Illustrator 30.2.1, SVG Export Plug-In . SVG Version: 2.1.1 Build 1)  -->
  <path d="M180.74,265.63c3.39,38.68,55.97,36.74,57.32-1.82v-1.14c-1.86-41.52-59.3-38.82-57.32,2.96Z"/>
  <path d="M84.18,196.66v447.92c0,68.73,56.23,124.96,124.96,124.96h9.64c68.73,0,124.96-56.23,124.96-124.96V196.66c0-68.73-56.23-124.96-124.96-124.96h-9.64c-68.73,0-124.96,56.23-124.96,124.96ZM268.3,595.98c5.67,0,10.27,4.6,10.27,10.27,0,4.01-2.32,7.71-5.99,9.3-20.22,8.78-35.49,25.49-44.33,50.37-2.9,8.18-14.17,9.5-18.51,1.99-13-22.46-32.46-36.99-53.32-43.68-4.22-1.35-7.05-5.28-7.05-9.71v-8.26c0-5.67,4.6-10.27,10.27-10.27h108.68ZM276.58,402.73c7.41,0,11.49,8.6,6.81,14.34h0c-7.01,8.6-11.03,20.3-11.03,32.11v92.63c0,4.88-3.97,8.82-8.85,8.79l-12.53-.09c-4.84-.04-8.74-3.97-8.72-8.81,0,0,.18-64,.18-69.58,0-20.27-8.84-30.54-26.28-30.54-22.88,0-25.35,19.39-25.35,27.73,0,4.57.57,71.75.57,72.43h0c.04,4.88-3.91,8.86-8.79,8.86h-11.6c-4.85,0-8.79-3.93-8.79-8.79v-86.08c0-14.71-6.18-28.73-16.53-37.5h0c-6.25-5.29-2.51-15.5,5.68-15.5h125.24ZM235.66,173.65c36.44,54.59,34.15,127.13-6.46,179.42-4.62,5.98-11.56,12.86-18.95,13.42-8.23.81-15.43-6.31-20.12-12.8-41.12-57.87-38.91-148.48,18.88-195.76l.85-.32c11.38-3.92,20.26,7.79,25.81,16.05Z"/>
</svg>