<?xml version="1.0" encoding="UTF-8"?>
<svg id="Isolation_Mode" xmlns="http://www.w3.org/2000/svg" version="1.1" viewBox="0 0 1313.53 342.3">
  <!-- Generator: Adobe Illustrator 30.2.1, SVG Export Plug-In . SVG Version: 2.1.1 Build 1)  -->
  <path d="M255.79,170.78c30.39-8.06,48.11-29.42,53.41-52.09,1.12-4.87,1.67-9.78,1.67-14.61,0-32.29-21.19-79.47-113.2-79.47h-114.47c-28.4,0-49.19,21.23-49.19,53.12v186.91c0,27.54,14.74,46.34,36.32,51.61,4.06,1,8.36,1.52,12.86,1.52h123.79c8.76,0,16.89-.52,24.5-1.52,63.81-8.14,87.86-48.21,87.86-80.5,0-8.5-1.2-16.36-3.62-23.47-7.65-22.35-27.44-37.32-59.94-41.51ZM141.32,122.33h23.74c22.46,0,39.43-.4,39.43,14.89,0,13.17-15.29,14.85-33.93,14.85h-29.23v-29.73ZM211.26,212.29c-2.91,8.46-14.22,12.45-34.33,12.45h-35.61v-33.17h41.54c16.09,0,29.23,6.39,29.23,15.73,0,1.8-.28,3.47-.84,4.99Z"/>
  <path d="M488.03,213.25h-52.57V77.2c0-8.94-1.87-16.96-5.22-23.87-8.84-18.48-27.84-29.26-48.19-29.26-28,0-53.85,20.4-53.85,53.12v187.45c0,27.54,12.03,46.38,37.08,51.61,4.7,1,9.88,1.52,15.49,1.52h107.26c25.85,0,52.14-17,52.14-52.29s-26.29-52.25-52.14-52.25Z"/>
  <path d="M774.37,225.06c-9.72-7.94-22.15-11.81-34.13-11.81h-83.96l.08-11.38s58.03.16,63.09.16c20.79,0,35.65-9.74,35.65-31.85s-15.29-31.01-33.1-31.01c-4.22,0-65.72.52-65.72.52v-10.54h78.03c14.7,0,29.95-5.87,40.07-17.84,7.09-8.42,11.67-19.88,11.67-34.44s-4.58-25.98-11.67-34.41c-10.12-11.97-25.37-17.84-40.07-17.84h-136.1c-28.4,0-49.19,21.23-49.19,53.12v186.91c0,32.73,20.79,53.12,49.19,53.12h142.03c11.99,0,24.42-3.91,34.13-11.81,10.63-8.66,18-22.07,18-40.47s-7.37-31.81-18-40.43Z"/>
  <path d="M1267.13,236.78l-64.32-67.29,62.29-63.63c30.69-31.63,6.96-81.3-40.96-81.3-22.56,0-38.13,15.16-48.36,27.5l-40.16,48.03-41.75-47.63c-11.9-13.53-25.03-27.9-49.59-27.9h-8.85c-.47,0-.91,0-1.38.04-21.84.58-36.93,15.42-46.94,27.46l-40.19,48.03-41.75-47.63c-8.23-9.4-17.09-19.19-29.93-24.27-5.66-2.28-12.12-3.63-19.63-3.63-40.99,0-70.05,46.4-37.73,80.46l57.35,60,5.77,6.06-5.77,5.91-60.18,61.45c-32.39,32.83-4.93,79.19,40.12,79.19,7.29,0,13.89-1.49,20.06-4.39,9.83-4.5,18.65-12.33,27.46-22.67l43.42-51.73,45.06,50.5c10.77,12.26,22.53,25.18,42.88,27.57h.33c3.05.47,6.24.73,9.5.73,18.83,0,33.16-10.27,47.52-27.06l43.39-51.73,45.09,50.5c11.9,13.53,24.96,27.9,49.55,27.9,40.96,0,70.05-46.36,37.69-80.46ZM1106.21,173.15c-34.64,35.33-91.56,35.01-125.77-.8l-2.87-2.97c34.64-35.41,91.6-35.04,125.81.73l2.87,3.01-.04.04Z"/>
  <path d="M1059.99,171.15c0,10.41-8.42,18.86-18.83,18.86s-18.86-8.45-18.86-18.86,8.45-18.9,18.86-18.9,18.83,8.45,18.83,18.9Z"/>
</svg>