<?xml version="1.0" encoding="UTF-8"?>
<svg id="Swatch_Info_Layer" xmlns="http://www.w3.org/2000/svg" version="1.1" viewBox="0 0 72 72">
  <!-- Generator: Adobe Illustrator 30.2.1, SVG Export Plug-In . SVG Version: 2.1.1 Build 1)  -->
  <defs>
    <style>
      .st0 {
        fill: #405eab;
      }
    </style>
  </defs>
  <path class="st0" d="M30.6,48.42c-.22-.12-.34-.31-.37-.52.21.08.37.3.37.52Z"/>
  <path class="st0" d="M26.31,49.78c-.12-.02-.2-.12-.25-.31.15.04.23.16.25.31Z"/>
  <path class="st0" d="M21.77,34.1l-.02-.22.21-.13c-.03.14-.04.29-.19.35Z"/>
  <path class="st0" d="M21.57,34.33c0-.08.09-.16.2-.24-.04.06-.06.17-.2.24Z"/>
  <path class="st0" d="M21.26,34.84c0-.14,0-.2,0-.25.13-.07.17-.16.2-.24h.11c0,.26-.17.37-.31.49Z"/>
  <path class="st0" d="M22.08,32.66c-.09.05-.18,0-.25-.12.11,0,.26-.06.25.12Z"/>
  <path class="st0" d="M50.61,28.36c-.14-.01-.2,0-.26,0-.09-.11-.14-.2-.24-.2-.06-.11-.1-.15-.13-.21.31.02.48.23.62.41Z"/>
  <path class="st0" d="M28.15,39.16s0-.09-.01-.16c-.02-.08-.08-.04-.11,0-.03.05-.07.1-.15.17-.09-.27.27-.49.32-.69-.1.12.03.35.15.45.03.08-.09.16-.2.21Z"/>
  <path class="st0" d="M52.2,27.78s-.07-.06-.14-.12c.02.02.07.06.14.12Z"/>
  <path class="st0" d="M49.99,27.95c-.08,0-.16-.09-.24-.2.05.05.17.06.24.2Z"/>
  <path class="st0" d="M49.75,27.75l-.22.02-.12-.1v-.11c.14-.01.27.06.34.19Z"/>
  <path class="st0" d="M49.41,27.56l-.12-.1s.07.04.12.1Z"/>
  <path class="st0" d="M51.57,27.15c.03-.09.06-.11.1-.12l-.1.12Z"/>
  <path class="st0" d="M22.88,47.1c-.58-.74-1.01-1.53-1.41-2.31.54.75,1.04,1.52,1.41,2.31Z"/>
  <path class="st0" d="M19.65,25.82c-.09.01-.19-.05-.25-.11.07.09.24,0,.25.11Z"/>
  <path class="st0" d="M52.1,48.79c-.12.08-.12.22-.31.25.07-.08.1-.23.31-.25Z"/>
  <path class="st0" d="M21.84,46.2s-.09,0-.13,0c-.07-.19-.09-.33-.17-.43.2-.08.18.29.3.43Z"/>
  <path class="st0" d="M49.29,27.46l-.22.02-.12-.1c-.05-.06-.08-.14-.13-.21.12.09.39.01.47.29Z"/>
  <path class="st0" d="M48.82,27.17l-.22.02-.13-.21c.2,0,.22.09.35.19Z"/>
  <path class="st0" d="M23.52,48.03c-.11-.06-.19-.05-.24-.09-.1-.27-.25-.52-.4-.85.21.27.58.53.64.94Z"/>
  <path class="st0" d="M48.47,26.97c-.2,0-.36-.11-.46-.16-.09-.09-.15-.27-.02-.24.24.05.39.25.49.4Z"/>
  <path class="st0" d="M20.63,47.73c-.09-.04-.24-.1-.25-.22.13.07.24.13.25.22Z"/>
  <path class="st0" d="M19.11,47.97c-.08-.04-.2-.06-.24-.2.07,0,.19.06.24.2Z"/>
  <path class="st0" d="M28.27,55.99l-.22.02-.02-.22c.06.07.22.08.24.2Z"/>
  <path class="st0" d="M21.06,47.69c.04.15.19.17.25.21.05.38.44.4.58.7l-.81-.58c-.04-.14-.18-.18-.24-.2-.02-.07-.01-.15-.02-.22l.23.09Z"/>
  <path class="st0" d="M29.37,46.86c0,.33.2.53.28.76l-.48-.63c-.05-.07-.19.13-.09.16.04.01.1.08.08.19-.11-.03-.17-.17-.29-.16-.24.03-.32.38-.63.25.39-.29.78-.44,1.13-.57Z"/>
  <path class="st0" d="M19.02,48.31c-.15-.08-.36-.14-.38-.4.25.06.35.22.38.4Z"/>
  <path class="st0" d="M19.33,48.06l-.03-.25c.28.14.48.4.71.65.45.48,1.02.78,1.43,1.28l-2.11-1.68Z"/>
  <path class="st0" d="M20.85,47.82c.02.09.12.12.24.2.11.42.86.77,1.21,1.2-.51-.16-.82-.51-1.15-.9-.17-.19-.47-.26-.52-.59l.23.09Z"/>
  <path class="st0" d="M29.85,47.38c-.19-.1-.26-.28-.26-.42.2.05.18.29.26.42Z"/>
  <path class="st0" d="M30.7,47.09s-.12-.08-.13-.21c.08.09.11.15.13.21Z"/>
  <path class="st0" d="M19.33,48.06l.02.22c-.16-.03-.2-.17-.25-.31.11.05.18.05.23.09Z"/>
  <path class="st0" d="M30.17,47.36s-.12-.08-.13-.21c.06.02.06.14.13.21Z"/>
  <path class="st0" d="M19.14,48.41s-.05-.06-.12-.1c.07.05.1.08.12.1Z"/>
  <path class="st0" d="M28.04,55.48c-.13-.02-.21,0-.26,0-.09-.12-.15-.18-.24-.2l-.02-.22c.17.19.42.21.51.41Z"/>
  <path class="st0" d="M19.59,48.48c-.14-.06-.19-.14-.24-.2.05.04.2.06.24.2Z"/>
  <path class="st0" d="M27.19,54.99s.08.03.12.1c.05.08.1.12.24.2.08.05.11.2.24.2.07.09.13.18.25.31-.48-.11-.77-.5-1.06-.79.07.01.15-.03.22-.02Z"/>
  <path class="st0" d="M47.49,20.92s.07-.07.12-.14c-.07.07-.09.12-.12.14Z"/>
  <path class="st0" d="M30.22,47.9c-.19-.08-.32-.24-.37-.52.18.1.32.22.37.52Z"/>
  <path class="st0" d="M30.65,47.76c.05.13.13.23.15.43-.28-.15-.49-.45-.62-.83l.47.4Z"/>
  <path class="st0" d="M40.52,53.74c-.26.26-2.28,1.55-2.46,1.22.82-.34,1.65-.58,2.13-1.21.16,0,.26.02.34,0Z"/>
  <path class="st0" d="M22.6,54.74c-.58.36-.94,1.36-1.65,1.42l-2.15.18c-.08-2.62-.64-1.6.84-3.54l-1.44-.63c-.25-.11-.39-.42-.58-.65.32-.44.63-.79.85-1.25.32-.08.57-.02.97-.18-.4-.4-.63-1.02-1.06-1.35s-.26-.79-.44-1.09c-.3-.49-.51-.88-.71-1.44-.97-2.64-1.34-5.35-1.12-8.24-1.78.81-3.64-.53-2.85-.87.54-.23.66.81,2.02.59-.48-.24-.84-.57-1.19-.96-1.41-1.55-2.75-.4-3.24-.88-.24-.24.08-.66.42-.7.89-.1,1.84.12,2.62.59.18.11.34.1.48.16.41.2.67.79,1.26.64-2.34-.82-1.42-2.55-2.08-2.67-.83-.15.59,1.74.71,1.98-.72-.2-1.47-2.25-.72-2.16.08.01.25.07.29.2l.42,1.31c.26.83,1.75,1.47,1.91,1.07.06-.14-.03-.25-.21-.34-2.02-1.01-1.33-2.7-2.19-3.88-.79-1.08-2.4-.76-1.67-1.62.46-.54,2.64.55,2.89,3.02.09.87.47,1.73,1.37,1.9,0-1.87.28-1.73.8-3.16.38-1.06.86-2.03,1.48-3.04-.21-.12-.6-.15-.71-.37.19-.47.15-.87-.22-1.3l.71-.42c-.53-.86-.42-.84-.43-2.02.8-.09,1.49-.43,2.08.03.12-.48.38-.87.66-1.3.34.11.87.07,1.03.37l.41.75c.57-.47,1.01-1.01,1.64-1.39-.01-.84-.39-1.27,0-1.86.44-.64,1.75-.14,2.72-.38l4.06-5.14c.99.47,1.76,1.15,2.47,1.92l-.03,1.6c1.26-.2,2.37-.33,3.61-.27.29-.67.98-1.84.09-2.29-.19-.1-.23-.29-.21-.48.02-.14.35-.23.55-.12.75.43.86,1.36.46,2.09-.15.27-.3.63-.04.92.37-.25.21-.66.39-.96.32-.54.61-1.06.78-1.67.05-.18.31-.36.46-.21.72.76-.94,1.43-.84,2.7.01.15.35.08.41-.02.44-.79,1.82-1.57,1.8-3.15,0-.8-.83-1.64-.17-1.93.77-.34,1.45,1.96.41,3.55-.39.6-.92,1.06-1.44,1.61.66.21,1.39.08,1.95.4.3.17.43.17.77.22.79.11,1.56.5,2.31.8l.09-1.03c.04-.49.55-.88.97-1.24,1.4.68,1,.32,1.58,1.69l1.02-1.29c.24-.31,1.67-.65,2.48-.34l.42,2.06-.73,1.5c.57-.09,1.08-.03,1.66.04.09.25.41.57.38.87-.83,1.63-.15,1.03-1.57,1.76.76.86,1.85,1.6,2.44,2.64.23.41.19.69.63,1.01.38.28.41,1.05.62,1.48.47.98.7,1.94.99,2.97.68,2.4.94,4.82.7,7.39.51.02.97-.32,1.18-.66.62-.98-.12-1.28.26-1.98.06-.11.4-.22.47-.05.24.56.03,1.22-.07,1.81.31-.31.36-.77.47-1.21.29-1.14,1.46-3.03,2.74-2.64.23.07.22.42.13.55-.39.58-1.49.29-1.95,1.49l-.7,1.82c-.32.84-.97,1.4-1.82,1.67-.1.07-.25.1-.12.19,3.64-.45,2.55-2.33,3.32-2.46s.52,1.76-1.39,2.58c-.87.38-1.74.33-2.75.48.42.34.85.5,1.24.78.88.62,1.22-.5,1.82-.31.09.03.19.11.19.29,0,.13-.14.27-.27.38-1.26,1.04-1.95-.02-3.02-.46-.19,1.01-.06,2.05-.54,2.89-.21.37-.31.55-.39,1.04-.09.58-.77,1.05-1.01,1.61-.21.48-.5.84-.87,1.24.4.35.73.73.94,1.21-.33.15-.44.59-.71.63l-.68.1c.93.93.95.25.88,2.26-.47.02-.98.3-1.36.09l-.98-.56c-.16.31-.2.77-.49.98-.15.11-1.15-.29-1.21-.86-1.8,1.44-3.73,2.41-5.76,3.32-.48.21-.99.48-1.53.41s-.79.32-1.19.44c-1.19.34-2.47.23-3.7.32-1.13.09-2.17,0-3.27-.06-1.35-.07-2.6-.37-3.91-.67-.46-.1-.74-.23-1.17-.42-.31-.14-.73,0-1.13-.23-.75-.44-1.62-.67-2.31-1.23-.14,1.16-.4.86-1.25,1.76-1.28-1.06-1.23-.56-1.49-2.15ZM39.77,18.51c1.5-.9,1.63-2.81.87-4.08-.93-.02.05.68.02,1.86-.03.87-.58,1.48-.89,2.23ZM25.65,26.97l1.22-1.76c.99-1.43,1.83-2.9,2.87-4.28-.24-.11-.22.16-.35.17.06-.25.31-.23.4-.27l2.25-3.11c.05-.07-.25-.28-.31-.2l-.46.66c-.57.81-1.24,1.51-1.77,2.36-.25.4-.47.8-.86,1.07,1.09-1.52,1.81-2.65,3.03-4.16.08-.1-.12-.22-.17-.18l-.2.13c-.34.22-.51.76-.79,1.14l-.6.82c-.34.47-.66.91-1.05,1.35-.27.31-.39.74-.76.95l2.59-3.57.61-.72c.06-.07.14-.17.12-.22-.25-.65-1.1,1.26-1.59,1.48l1.23-1.59c.06-.08.05-.14.02-.17-.32-.41-1.64,2.05-1.96,2.29.42-.98,1.26-1.58,1.62-2.57-.51.16-.6.64-.9.99-1.64,1.88-2.91,3.94-4.42,5.92l-3.72,4.86-2.32,3.04c-.57.75-1.18,1.41-1.62,2.26-.04.07-.18.13-.19.2,0,.06.23.22.26.16.18-.32,1.24-1.9,1.44-1.97-.25.35-1.32,1.82-1.26,2,.03.07.2.1.3.1.39-.79.83-1.64,1.49-2.28-.54.74-1.08,1.47-1.36,2.45.44-.18.4-.65.65-.94.4-.47.61-1.03,1.04-1.44-.4.88-1.21,1.51-1.39,2.56l1.84-2.48-1.61,2.46c.03.09.1.14.15.16.08.03.22,0,.27-.11.37-.81,1.34-2.27,1.83-2.76-.28.53-1.79,2.63-1.81,2.86,0,.09.09.17.17.16.16-.02,1.47-2.31,1.77-2.62l-1.6,2.82c.7-.83,1.15-1.69,1.77-2.52l4.13-5.47ZM37.37,17c-.16-.31-.46-.54-.77-.21.66.4.87.97.67,1.69.47-.38.37-.98.09-1.49ZM37.97,19.41c.05-1.46,1.67-1.99.98-2.64-.27.36-.31.77-.5,1.14-.24.47-.65.92-.47,1.5ZM32.2,18.07c.1-.06.25-.09.15-.16-.03-.02-.09-.09-.13-.1-.04,0-.08.11-.15.17-.18.15,0,.25.13.09ZM31.88,18.32s-.03-.05-.06-.05-.05.03-.05.06.03.05.06.05.05-.03.05-.06ZM32.34,18.47c.08.46,0,.85.05,1.36.56-.83-.24-2.44-.05-1.36ZM32.08,19.97c.28-.4.34-.94,0-1.23-.02.45-.06.77,0,1.23ZM31.76,20.09c.27-.41.08-.78,0-1.16.02.39-.13.75,0,1.16ZM36.96,19.37c.25-.32.2-.54.32-.79-.27.2-.27.53-.32.79ZM39.25,19.06c.34-.16.44-.29.43-.48-.27.12-.4.31-.43.48ZM31.06,20.62c.5-.25.73-.63.47-1.21-.28.27-.44.7-.59,1.12-.2.15.01.32.12.09ZM31.22,19.59s-.03-.05-.06-.05-.05.03-.05.06.03.05.06.05.05-.03.05-.06ZM30.82,20.06s-.03-.05-.06-.05-.05.03-.05.06.03.05.06.05.05-.03.05-.06ZM38.92,19.34c-.08.12.04.24.1.14.02-.03.11-.1.1-.13-.02-.05-.15-.09-.19-.01ZM31.62,20.77l5.26-.39c-.05-.26-.11-.47-.25-.64-.81-.05-4.36.22-4.78.76.26.09.53-.07.77.07-.35.28-.74-.14-1.01.2ZM37.06,19.64s-.03-.05-.06-.05-.05.03-.05.06.03.05.06.05.05-.03.05-.06ZM44.72,20.04c.62,0,.78-.56.64-1.07-.25.35-.55.62-.64,1.07ZM30.97,20.39s-.03-.06-.07-.06-.06.03-.06.07.03.06.07.06.06-.03.06-.07ZM37.1,19.92c-.04-.13-.13-.13-.15.01.04.25.15.24.15-.01ZM38.5,19.79c-.34.02-.26.27-.39.37-.32.24-.45-.34-.56-.38-.05-.01-.23-.01-.24.05-.02.21.07.39,0,.6-.31.1-.6-.03-.85.16.66.09,1.22-.1,1.84-.22.02-.26.12-.37.2-.57ZM37.86,19.8c-.05.17.07.18.15.15.04-.01.06-.08,0-.11-.03-.02-.12-.15-.16-.04ZM45.31,22.33c.03-.46-.14-.78-.02-1.15.39,1.02-.06,1.21.13,1.27.07.03.23.21.28.05l.35-1.21c.15-.07.61,0,.65-.3.08-.61-.25-1.99-1.09-1.9-.46.04.75,1.43.57,1.63-.34-.33-.34-.93-.72-.95-.31-.01-.34.49-.34.69-.3-.02-.08-.31-.37-.38-.06.67-.14,1.34.15,1.94l.15-1.04c.32.4-.31,1.19.26,1.34ZM30.71,21.02c.1-.08.08-.21.12-.28.07-.13-.02-.26-.18-.28,0,.21,0,.34.06.56ZM48.37,19.38c-.06-.04-.13-.09-.19-.09-.08,0-.18.04-.24.13l-1.04,1.64c.24.12.4-.03.59-.14.44.61.85,1.41.43,2.11.29.27,1.38-1.77,1.42-1.89.2-.6.19-1.22.47-1.79.09-.18-.06-.32-.14-.39-.31-.26-1.23.14-1.28.19-.05.06-.03.16-.03.24ZM40.94,20.17c.14.14.27.07.18-.11-.49.02-1.9-.4-2-.11-.27.72,1.19.07,1.82.22ZM50.63,20.63c-.22-.68-.26-1.17-.61-1.74-.28.74-.32,1.44-.51,2.19.38-.37.64-.36,1.13-.45ZM30.15,21.45c.41-.12.39-.42.33-.76-.15.24-.23.49-.33.76ZM38.85,20.04s-.03-.05-.06-.05-.05.03-.05.06.03.05.06.05.05-.03.05-.06ZM36.15,20.76c0-.09-.1-.15-.15-.21l-4.67.45,2.72-.1c.72-.03,1.39-.09,2.11-.15ZM25.55,22.02c-.1.2-.16.47-.1.76.13-.03.06-.2.13-.24.24-.15.44-.39.23-.67.16-.01.24.08.33.02.08-.05.16-.12.16-.28l-2.17.1c.14.37.53.24.78.31l-.07,1.6c.53-.05-.02-1,.28-1.72.24.46-.1.81.08,1.27.3-.26-.09-1.57.5-1.25.1.06.12.08.05.24-.06.13-.07.3-.18-.14ZM29,23.36c.89-.17,1.68-.36,2.53-.27-.02.08-3.34.31-2.83.66.75-.22,1.43-.29,2.18-.34.39-.03.74-.33,1.1-.13l-.98.22c-.22.05-2.87.31-2.62.58.66-.19,1.23-.21,1.87-.31l1.09-.18c2-.33,3.96-.53,5.99-.68.54-.04,2.84-.15,3.08-.44.29-.53.38-1.26.65-1.91-.92-.24-1.73-.05-2.59.1-1.22.2-2.37.38-3.6.45-1.47.09-2.88.17-4.28.38l1.36.03c-.58.36-1.71.05-1.66.38l2.01-.09c-.12.15-2.17.19-2.16.18-.08.1-.22.17-.12.3.72-.22,1.47-.3,2.18-.24l-1.97.31c-.26.04-.57-.09-.64.27.81,0,1.84-.43,2.64-.25-.2.08-3.21.3-2.94.61.3.04.56-.13.79,0-.38.23-.87-.13-1.09.37ZM29.74,21.59s-.03-.05-.06-.05-.05.03-.05.06.03.05.06.05.05-.03.05-.06ZM44.38,21.42c-.73-.32-1.36-.8-2.19-.96l1.4.74c.25.13.44.34.79.21ZM24.42,23.3l.04-.95c.11-.18.02-.33-.16-.13.01.39,0,.76.11,1.09ZM24.65,22.06l-.13,1.9c.29.53.3-2.28.13-1.9ZM29.95,21.73c0-.05-.05-.09-.1-.09s-.09.05-.09.1.05.09.1.09.09-.05.09-.1ZM48.01,26.82c.11.2.33.26.59.37.08.03.12.24.35.19.05.06.1.08.12.1.05.14.2.2.35.19.01.03.07.04.12.1.13.17.27.38.58.39.05.1.13.18.24.2.14.17.28.41.59.39-.1-.16-.21-.23-.33-.39.24.02.4.4.7.18l-2.64-1.89c.53.14,2.72,1.97,2.95,1.82.33-.21-2.33-1.63-2.53-1.97.89.41,1.78,1.2,2.61,1.71.05.12.09.12.13.14.07.05.35-.08.25-.15-.88-.7-1.83-1.15-2.66-1.94.66.4,1.31.85,1.99,1.32.32.22.53.61,1.01.6.06-.19-.11-.27-.22-.41.14.04.25.1.37.27.06.08.2-.04.24-.1.23-.3-.8-.8-1.14-.93-1.71-1.66-4.29-3.14-6.38-4.47-1.13-.72-2.19-1.53-3.47-1.96l-.12.3,1.34.74c.22.13.06.29-.08.11-.48-.25-.88-.63-1.45-.7.48.7,1.33.69,1.92,1.27-.62-.23-1.2-.59-1.88-.96-.64.25,2.1,1.2,2.26,1.58-.75-.38-1.52-.73-2.3-1.19-.07-.04-.15.1-.15.16-.02.2,1.25.64,1.46.89l-1.61-.69c.4.63,1.06.54,1.61,1.1-.56-.23-.99-.61-1.66-.78.19.55.76.63,1.15.92,1.09.81,4.44,2.85,5.7,3.47ZM41.42,20.95c-.05-.22-.29-.24-.29-.09,0,.35-.39.53-.17.88.15-.29.19-.54.47-.79ZM29.44,22.05s-.03-.05-.06-.05-.05.03-.05.06.03.05.06.05.05-.03.05-.06ZM29.66,22.03s-.03-.05-.06-.05-.05.03-.05.06.03.05.06.05.05-.03.05-.06ZM28.94,22.54c.19-.05.26-.16.29-.31-.16.08-.21.2-.29.31ZM28.57,23.15l.27-.43c-.18.08-.34.23-.27.43ZM49.6,22.42c.4-.53.66-1.01.89-1.52-.65-.59-1.61,1.46-1.81,1.78l.78-.82c.12.18-.16.44.14.56ZM40.94,21.9c-.08-.03-.15,0-.16.13s-.14.15-.04.22c.09.06.17.14.17.03,0-.19.23-.31.03-.38ZM46.69,21.8c-.35-.08-.13-.26.02-.1.14.22.27.06.35,0s.29-.25.14-.31c-.25-.09-.7-.09-.85.14-.23.34-.28.79-.43,1.16-.05.12.35.35.43.26.28-.29.39-.78.34-1.16ZM24.38,24.19c.08-.37.06-.58-.06-.77-.06.31-.03.54.06.77ZM44.44,21.75c.01.1.11.18.14.16.05-.04.06-.13.03-.16-.03-.05-.18-.1-.17,0ZM47.78,22.48c.13-.46-.06-.81-.3-1.06-.03.41.04.73.3,1.06ZM28.45,23.35s-.03-.05-.06-.05-.05.03-.05.06.03.05.06.05.05-.03.05-.06ZM47.07,23.47c.81-.44.32-1.8.18-1.75-.06.02-.22.07-.26.16l-.51,1.18c.16.15.4.39.59.4ZM19.4,25.71c-.4.02-.63-.34-1.11-.36-.02.32.04.59.15.88-.02.03-.04.06-.06.1-.02.05.04.09.07.13.08.63.74.64,1.52,1.09-.1-.33-.52-.26-.67-.61.17.02.26.09.46.21l-.11-1.33c.26-.04.45-.08.56.14-.14.05-.22-.04-.33-.03-.21.54.03,1.09.28,1.54.32.59-.9,1.6-1.04,1.76-.31.35-1.76,3.05-1.71,3.64.08.03.19.03.18.06l-.05.2c.14-.01.2-.22.23-.32.02-.08-.12-.06-.13-.18l3.69-4.71,1.99-2.74-1.13,1.85c.32-.29,1.89-2.17,1.83-2.39-.13-.48-.56.7-.69.53l.55-1.21c-.77.39-1.39,1.12-1.99,1.71-.12.03-.28-.18-.16-.38.08.05.04.22.25.2-.17-.46-.35-1.59-1.14-1.23.38.36.89.59.68,1.05-.11-.17-.07-.48-.21-.55-.11-.06-.45-.24-.46-.07l-.08.92c-.26-.41.07-.75-.1-1.18-.75.89.42,1.54.61,2-1.25-.77-1.28-1.52-2.69-1.15.33.12.62.19.82.42ZM40.79,22.51s-.04-.07-.08-.06-.07.04-.06.08.04.07.08.06.07-.04.06-.08ZM40.5,23.07c.09.14.23-.04.25-.13.03-.13-.02-.34-.22-.22-.04.03.06.1.06.13,0,.03-.07.06-.09.22ZM35.2,23.31c-.17.02-.2.22-.14.35.03.07.14.07.28.04.07-.02.09-.13.06-.27-.01-.07-.06-.1-.2-.11ZM35.5,23.31c-.16.06.01.27.1.35.05.05.17-.05.23-.12.05-.05.02-.17-.06-.26-.05-.05-.15-.02-.28.03ZM35.98,23.24c-.1.14-.14.33.02.37.07.02.18,0,.25-.08.05-.05.03-.19,0-.28-.03-.07-.21-.09-.27-.01ZM40.48,22.83l-3.14.23c-.26.02-.46.08-.6.24-.09-.03-.22-.2-.31-.1-.06.07-.07.19-.03.34l3.6-.27c.26.02.56-.08.47-.43ZM28.07,24.04s-.03-.05-.06-.05-.05.03-.05.06.03.05.06.05.05-.03.05-.06ZM32.94,23.97c.11-.1.1-.19.06-.26-.08-.14-.46-.07-.5.02-.03.06.09.31.18.28.05-.01.08-.02.26-.04ZM33.29,23.63c.02-.18-.25-.03-.27.07-.02.12.07.32.19.25.04-.02.07-.18.08-.33ZM33.52,23.93c.19-.05.24-.42,0-.41-.14,0-.11.44,0,.41ZM33.79,23.54c-.05.12-.11.28.04.32.09.02.23,0,.28-.12.03-.07,0-.21-.08-.25-.06-.03-.2-.01-.23.05ZM34.68,23.7c.12.15.24-.02.19-.13-.03-.06,0-.15-.08-.16-.02,0-.58,0-.62.12-.01.05.03.14.02.2,0,.05.18.09.21.02.03-.09.06-.15.1-.19s.08,0,.18.13ZM31.53,23.82c-.14.07-.19.19-.15.26.04.06.1.06.17.04.08-.03.08-.11.05-.16-.02-.04-.02-.17-.07-.14ZM32.33,23.71l-.6.13c-.06.01-.04.24.02.26-.09-.03.53-.02.64-.05.09-.03.14-.38-.06-.34ZM41.23,23.33c.05-.12-.2-.17-.17-.35-.08.04-.09.22-.15.29-.05.05.28.17.32.06ZM27.86,24.33c0-.05-.05-.09-.1-.09s-.09.05-.09.1.05.09.1.09.09-.05.09-.1ZM30.39,24.37c.21-.16.13-.32.03-.37-.02.18-.19.29-.03.37ZM30.62,24.06c-.03.19.24.28.21.19-.03-.13.11-.18.09-.24-.03-.07-.28-.09-.3.05ZM31.07,23.97c-.05.06-.04.26.05.29-.02,0,.23-.16.14-.28-.04-.05-.13-.09-.2-.01ZM29.18,24.25c-.17.13-.02.29.09.28.06,0,.13-.14.15-.2.03-.08-.11-.19-.24-.09ZM29.75,24.28c0-.07-.07-.12-.14-.12s-.12.07-.12.14.07.12.14.12.12-.07.12-.14ZM29.87,24.19c-.09.14.04.23.16.19.04-.02.13.02.16-.07.03-.08-.03-.17-.08-.16-.07.01-.2-.02-.24.04ZM49.55,28.34c-.03-.29-.37-.35-.58-.51-.59-.48-1.15-.95-1.82-1.35l-5.53-3.3c-.12-.07-.26,0-.27.06,0,.05-.07.19.02.24,1.6.95,3.15,1.86,4.68,2.89.71.48,1.41.81,2.23,1.09.49.16.68.73,1.27.87ZM28.65,24.43c-.3-.05-.47-.11-.59.13.23.1.51.03.59-.13ZM29.01,24.46c0-.07-.07-.12-.13-.11s-.12.07-.11.13.07.12.13.11.12-.07.11-.13ZM47.46,23.55c.27-.26.28-.52.3-.81-.13.27-.29.52-.3.81ZM51.26,22.52c-.42-.08-.7-.06-1,.08.15.28.44.29.66.25.13-.02.34-.08.34-.32ZM27.99,24.67c-.3-.18-.51-.02-.6.15-.54.96-1.37,1.65-1.79,2.77.94-.89,1.57-1.94,2.39-2.92ZM21.93,33.64c-.1,0-.08.15-.18.24-.12.11-.31.19-.29.47-.11,0-.1.14-.2.24-.17.16-.28.32-.38.58l.38-.33c0,.12-.22.34-.13.47.3.4.63-1,.95-1.13-.03.53-1.04,1.31-.46,1.34.25.02,2.45-3.86,2.94-4.31l-2.69,4.29c-.07.11.3.18.39.16.09-.03,2.5-3.91,2.88-4.26l-2.52,3.94c-.08.1-.17.14-.18.21-.02.13,0,.24.08.25.15.01.34.03.41-.11.3-.63.72-1.13,1.1-1.71.51-.79.91-1.65,1.58-2.28l-2.68,4.1c.02.08.33.22.39.13.41-.58.69-1.22,1.18-1.71-.34.6-.81,1.1-1.04,1.78.69.05.68-.53.97-.89.51-.64,1.4-1.13,2.21-1.13,1.03,0,1.93.46,2.43,1.29.86,1.42.74,3.24-.48,4.36-.69.63-1.51.91-2.51.76-1.6-.24-2.95-2.54-2.17-4.26l-1.11-.09.13,1.66c.28-.48-.09-.96.38-1.32-.25,1.15.03,2.09.38,3.26l-.67-1.44c-.1-.21-.32-.29-.29-.66.04-.5.06-1-.03-1.54-.27-.08-.54-.16-.86-.22l.27,4.14-.49-4.32c-.34,1.13.09,2.89,0,3.92-.15-.85-.2-1.71-.25-2.62-.01-.24.18-1.35-.18-1.31-.33.04.04.99-.12,1.23-.33-.46.19-.94-.27-1.34.04,2.5.07,4.96.31,7.48.02.22.39.33.2.66-.11-.05-.02-.21-.16-.34-.04.52.07,1.06.31,1.53-.07,0-.13-.05-.2-.11.04.42.03.76.26,1.09-.22.09,0,.44.17.43,0,.14.16.12.13,0,.48.55.86,1.2,1.45,1.74.12.32.2.61.53.74-.08-.3-.26-.42-.29-.65.32.17.3.68.55.75.14.04.36.02.36-.09-1.13-1.56-2.15-3.24-3.03-4.87l3.02,4.69c.06.09.13.13.19.14.07,0,.22-.06.23-.15-.56-.79-1.03-1.74-1.55-2.61-.63-1.05-1.38-1.95-1.81-3.1,1.2,1.79,2.2,3.6,3.36,5.49.03.11.04.17.09.18.06.01.17,0,.21-.02.34-.16-1.79-2.92-1.85-3.49l2.07,3.36,3.11-1.58c.55-.28,1.11-.5,1.65-.92-.31-.66-.85-1.2-1.26-1.83-.15-.23-.25-.43-.5-.57.1-.26.29.22.31.08,0-.06.1-.26.07-.33-.42-.84-1.02-1.51-1.31-2.43.54.74.91,1.52,1.37,2.31.47-.24.93-.13,1.46-.11.34.01.91-.16,1.15.17l2.14,2.99c.07.1.15.18.22.19.14.02.24-.1.3-.24.57-1.19,1.09-2.33,1.76-3.47.22-.37.86-.55,1.17-.2l3.12,3.51,1.87-4.01c.12-.26.3-.4.57-.5l4.22-1.42c.92-.31,1.8-.59,2.71-1,.02-.47-.16-.91-.07-1.42.17.4.09.86.17,1.34.01.07.31.01.31-.06.03-.54-.16-1.06-.07-1.64.19.5.07.97.22,1.58.24-.13.86-.22.91-.57.09-.76-.03-1.51-.22-2.22l.07,2.35c-.25-.82-.14-1.61-.24-2.41l-.24-2.02c-.08-.66-.21-1.24-.34-1.94.47.53.25,1.96.74,2.73.07-.37.14-.69.06-.99l-.95-3.59c-.02-.08-.13-.15-.18-.16-.52-.2.52,1.78.31,1.99l-.6-1.75c-.13.17-.36.25-.47.45.12.29.25.55.12.81-.12-.31-.06-.58-.31-.8-.23.22-.44.35-.6.55.07.41.34.74.24,1.19-.19-.37-.11-.81-.44-1.09-.27.29-.07.61.04.91.01.23-.1.26-.13.01-.06-.19-.1-.68-.38-.53-.25.17.1.6.18.85-.26-.08-.25-.37-.4-.63-.16.09-.16.34-.47.38.32-.9,1.24-.53.54-1.24.19,0,.24.22.42.26l.76-.65c-.15-.18-.35-.24-.48-.46l.61.32c.12.06.27-.11.38-.25-.52-.3-1.03-.61-1.51-1.01.6.24,1.03.66,1.62.94.07.03.13-.11.16-.13.25-.15-1.63-1.03-1.72-1.26.67.24,1.14.71,1.79,1.03.21.1.68-.29.56-.44-.31-.31-.79-.39-1.06-.72-.32-.38-.82-.61-1.26-.9-.96-.66-1.84-1.36-2.88-1.88-.05-.03-.14.02-.19.02-.04,0-.04-.12-.08-.19-.99-.5-1.88-1.16-2.97-1.49-.24-.16-.46-.32-.71-.39.05.18.18.22.23.34-.15-.03-.42-.11-.42.16.83.38,1.65.62,2.3,1.18-.54-.16-1.81-1.08-2.48-.94.62.65,1.48.73,2.18,1.3l-2.15-1c-.11.18-.12.38-.29.47l.39-1.28c.1-.33-.86-.16-.86-.16-.69-.47,1.14.22,1.07-.31-1.49-.07-2.85.04-4.27.23l-4.38.6c-1.27.17-2.51.28-3.67.75.35.09.61-.28,1-.07-.21.16-.58.03-.83.26-.05.57,1.03-.28,1.52.01-.46.12-.86.12-1.25.29-.02.61,1.29-.31,1.72,0-.5.12-.94.09-1.38.34.01.73,1.11-.2,1.63.07-.45.12-.89.15-1.36.34.31.62,1.38-.24,1.84.06-.54.09-.98.16-1.45.32.4.77.83-.08,1.28.25-.35.07-.66.07-.85.24l1.57,1.94-2.11-2.27c-.33.33-.57.76-.96,1.06l.85-1.14c.08-.11-.21-.33-.36-.45l-.96,1.2c.2-.77,1.38-1.28.62-1.54-.39.43-.73.96-1.19,1.35.14-.27,1.13-1.49,1.09-1.55s-.22-.25-.27-.19l-.97,1.1c.05-.36.87-1.22.86-1.23-.06-.62-.92.85-1.09,1.05-.21-.27,1.12-1.26.8-1.41-2.18,2.43-4.15,4.97-5.81,7.76-.13.21-.46.3-.4.59ZM50.23,23.06c-.43-.91-1.63,0-2.27.39,1.2.07,1.1-.5,2.27-.39ZM49.29,24.85l2.69,1.95c-.55-.76-1.22-1.36-2.02-1.88l1.35-.8c.19-.11.61-1.01.42-1.25-.05-.07-.2-.22-.28-.18l-.67.33c-.31.15-.17.75-.37,1.14.54-.11.77-.46,1.09-.86-.1.53-.57.78-1.02.99l-1.19.57ZM40.89,23.72s-.04-.07-.08-.06-.07.04-.06.08.04.07.08.06.07-.04.06-.08ZM48.61,24.33c.33.08.83-.13,1.07-.28.22-.2.18-.58.34-.82-.73,0-1.3.32-1.89.63-.23-.12-.32.08-.07.17.34-.19.38.25.55.3ZM49.95,24.21c.39-.25.51-.59.46-.99-.38.23-.43.61-.46.99ZM47.86,23.67s-.03-.05-.06-.05-.05.03-.05.06.03.05.06.05.05-.03.05-.06ZM49.54,24.41s-.04-.07-.08-.06-.07.04-.06.08.04.07.08.06.07-.04.06-.08ZM49.26,24.54s-.03-.05-.06-.05-.05.03-.05.06.03.05.06.05.05-.03.05-.06ZM19.33,28.63c-.36-.36-.81-.15-.9-.68-.04-.23.07-.35.25-.48-.21-.13-.6,0-.54.21.11.39.15.76.1,1.13.11.16.51.22.68.08-.17-.22-.42-.17-.45-.39.29.18.58.39.85.13ZM19.47,28.37c.18-.12.2-.45.43-.54-.19-.22-.46-.42-.72-.4s-.72.23-.63.54c.08.28.7.55.93.4ZM21.38,28.04c.36-.27.57-.57.78-.9-.33.27-.55.58-.78.9ZM22.35,32.03c.63-.41.89-1.09,1.28-1.63.69-.96,1.39-1.84,1.96-2.82-.93.79-1.48,1.75-2.16,2.64l-.95,1.25c-.06.08.15.15.19.21-.19.05-.39.04-.49.16-.07.09-.24.27-.08.39.1.08.24.07.29-.02.03-.05-.13-.13-.04-.18ZM20.59,29.1c.36-.27.57-.57.78-.9-.33.27-.55.58-.78.9ZM20.39,29.54s-.03-.05-.06-.05-.05.03-.05.06.03.05.06.05.05-.03.05-.06ZM18.8,31.34c.55-.52,1.01-1.04,1.36-1.63-.64.48-.88,1.14-1.36,1.63ZM16.17,35.75c-.86-.39-1.53-1.72-1.49-2.25.16-2.33-2.36-3.46-2.55-2.8-.16.56,1.15.31,1.82,1.36.95,1.48.13,2.94,2.22,3.7ZM48.38,27.75c-.13-.15-.25-.24-.42-.14.14.07.27.15.42.14ZM49.26,28.39s-.03-.05-.06-.05-.05.03-.05.06.03.05.06.05.05-.03.05-.06ZM50.32,28.92c.08.08,0,.21.05.2.08,0,.19.03.26-.07l-.93-.75c.08.25.33.26.43.46-.11.09-.23.12-.12.18.06.03.09.1.12.08l.19-.1ZM49.7,28.63c0-.05-.05-.09-.1-.09s-.09.05-.09.1.05.09.1.09.09-.05.09-.1ZM52.89,28.26c-.27,0-.43.14-.54.35.26,0,.43-.14.54-.35ZM18.8,31.55s-.03-.05-.06-.05-.05.03-.05.06.03.05.06.05.05-.03.05-.06ZM52.04,28.71s-.03-.05-.06-.05-.05.03-.05.06.03.05.06.05.05-.03.05-.06ZM52.92,42.19c.11.88.1,1.74.09,2.58,0,.12-.18.29-.03.35.07.03.19.07.23-.01.08-.16.08-1.36.07-1.5l-.25-3.94c.22,1.44.51,2.84.39,4.26l-.09,1.07c-.01.12-.04.21.06.24.08.02.16.01.19-.03.06-.1.06-1.31.05-1.4l-.29-3.95c.39,1.02.36,2.06.37,3.17,0,.7.14,1.51.01,2.19.12.24.74.43.93.28,1-.78.09-3.09.23-4.34.26.25-.03.56.24.77-.02-.98.01-1.91-.21-2.85-.35-1.48-.35-2.96-.59-4.46s-.25-2.81-.27-4.28c0-.04-.5-1.77-.89-1.74-.5.04.58,1.6.32,2.36-.02-.24-.58-2.21-.62-2.22-.07-.02-.15.04-.23.08-.12.06.05.11.09.21.15.76.48,1.43.46,2.17-.28-.8-.33-1.57-.72-2.37-.33.53.71,2.38.44,3.28l-.61-2.93c-.02-.11-.15-.12-.19-.09-.19.12.68,2.06.46,2.72-.21-.88-.28-1.78-.69-2.62l.37,2.77c-.34-.46-.39-2.67-.74-2.73l.44,3.08-.7-2.99.3,2.69c.46,4.15.95,8.16.92,12.26.33-.54.01-1.03.13-1.59.51,1.25-.56,2.29.2,2.38.25-1.85-.33-3.96-.27-5.78l.37,2.92ZM18.6,31.78s-.03-.05-.06-.05-.05.03-.05.06.03.05.06.05.05-.03.05-.06ZM17.91,32.51c.26-.14.38-.33.48-.54-.23.15-.34.35-.48.54ZM50.06,30.03c0-.21-.01-.36-.17-.32-.13.03-.1.25-.01.34.04.04.18.17.18-.02ZM50.91,29.68s-.03-.05-.06-.05-.05.03-.05.06.03.05.06.05.05-.03.05-.06ZM21.84,32.54c-.08.04-.28.08-.27.25.01.13.19.15.26.14.11-.02.24-.09.25-.27.02-.03.09-.07.12-.09.06-.04.16-.19-.03-.16-.09.01-.12-.08-.17-.09-.08,0-.15.07-.16.22ZM52.32,43.12c-.08-1.01-.01-1.89-.13-2.81-.27-2.03-.3-4.94-.57-6.56l-.56-3.29c-.03-.18-.1-.41-.27-.53-.13.88.12,1.68.22,2.54l.58,4.71c.13,1.05.4,2.12.24,3.19-.08.51-.12,1.92.22,2.21.03.12-.15.33-.11.43.03.09.39.24.38.11ZM50.05,30.45c0-.07-.07-.12-.13-.11s-.12.07-.11.13.07.12.13.11.12-.07.11-.13ZM17.31,33.33s-.03-.06-.07-.06-.06.03-.06.07.03.06.07.06.06-.03.06-.07ZM21.38,33.05c-.09.13.06.22.14.19.04-.01.14.03.16-.07,0,.02-.2-.27-.31-.12ZM21.91,33.03s-.03-.06-.06-.05-.06.03-.05.06.03.06.06.05.06-.03.05-.06ZM17.08,35.95c.13-.77-.11-1.44.16-2.14.04-.12.1-.19.09-.25-.01-.07-.15-.16-.19-.11-.02.04-.16.06-.2.13-.26.56-.29,1.18-.26,1.81.36.08.29.32.4.55ZM50.2,31.12c.07-.27.09-.41-.09-.44,0,.21.01.34.09.44ZM21.19,33.4c-.08.13.02.23.15.19.04-.01.13.04.16-.07,0,.02-.2-.27-.31-.11ZM21.27,33.91c-.06-.28-.32-.25-.41-.1.2.03.32-.01.41.1ZM19.7,46.78l-.13-3.04.32,2.78c.02.19.26.06.35.03.19-.06.06-.17.04-.35-.06-.68-.09-1.32-.13-2.01l-.23-4.05c-.09-1.64-.07-3.45-.28-4.98-.21.81,0,1.58-.02,2.41l-.03,1.13c-.27-.47-.05-1-.11-1.53-.08-.72-.03-1.35-.05-2.14-.36.43-.04.87-.16,1.39-.2-.43-.11-.93-.04-1.41-.19-.15-.36-.12-.28.13l.15,3.17c-.15-.25-.31-3.51-.29-3.49-.12-.1-1.05-.65-1.27-.38-.02-.12.04-.17.01-.19-.48-.43-.04,3.02,0,3.42.28,2.58.28,5.09.18,7.68-.02.45.49.82.33,1.31-.18-.27-.2-.61-.33-.97-.27.34-.08.75.08,1.14.13.31.4.48.69.37-.27-1.17-.59-2.21-.47-3.32.25,1.15.13,2.25.69,3.37.06-1.02-.57-2.58-.38-3.72.18,1.11.24,2.51.67,3.56.23-.39-.05-.7-.08-1.05-.08-1.39-.41-1.76-.28-2.75.09.62.15,1.16.29,1.74.15.63-.04,1.34.43,1.92l-.2-2.88.52,2.73ZM50.4,31.43s-.04-.07-.08-.06-.07.04-.06.08.04.07.08.06.07-.04.06-.08ZM20.8,34.02c-.05.17.07.18.15.15.03-.01.07-.07,0-.11-.03-.02-.12-.15-.16-.04ZM55.22,35.77l.4,3.38c.23-2.26-.1-4.54-.88-6.67l-.07.58c-.27-.56.24-.83-.31-1.87l.37,4.38c.05.55.11,1.08.29,1.65l-.24-4.09.63,6.13-.19-3.5ZM20.63,34.35c.01.1.11.18.14.16.05-.04.06-.13.03-.16-.03-.04-.18-.1-.17,0ZM20.4,34.49c-.05.17.07.18.15.15.03-.01.06-.08,0-.11-.03-.02-.12-.15-.16-.04ZM16.2,37.15c-2.12-.66-2.51-1.89-4.41-1.81-.2,0-.39-.09-.59.02-.12.06-.3.21-.16.38.44.08.93-.12,1.39-.06,1.04.13,1.72.84,2.43,1.57l-.67-.99c.6.52,1.26,1,2.01.88ZM20.34,34.81c.01.1.11.18.14.16.05-.04.06-.13.03-.16-.03-.04-.18-.1-.17,0ZM50.58,32.24s-.03-.05-.06-.05-.05.03-.05.06.03.05.06.05.05-.03.05-.06ZM20.27,35.05s-.04-.07-.08-.06-.07.04-.06.08.04.07.08.06.07-.04.06-.08ZM27.1,34.58s-.03-.05-.06-.05-.05.03-.05.06.03.05.06.05.05-.03.05-.06ZM28.15,39.16c.03.11-.02.25.09.33.09-.13.02-.46.12-.28.02.03.09.12.11.1.13-.1.27-.24.3-.39-.13.06-.14.13-.18.16-.09.11-.18.09-.19-.02-.02-.31-.07-.52.1-.88-.08.16-.23.22-.31.32.14-.64.59-1.06.62-1.73l-1.47,2.8c-.19.12,1.6-3.6,1.48-2.94.11-.65-.4.53-.85.49.14.08.19.12.18.17-.02.06-.07.1-.1.16l-1.07,2.1.94-2.42c-.63.66-.73,1.48-1.21,2.14.12-.76.64-1.34.94-2.07-.71-.5-.96,1.03-1.4,1.45.15-.57.42-1.11.82-1.55-.38-.72-.8,1.27-1.06,1.36.15-.59.39-1.09.73-1.6-.2-.65-.84,1.54-.89,1.25-.02-.58,1.05-1.7.52-1.75l-.78,1.36.93-1.99c-.58.57-.76,1.31-1.25,1.91.23-.63.6-1.15.92-1.75.1-.18.4-.28.28-.56-.53.47-.76,1.08-1.12,1.66.07-.53.43-.9.68-1.38.1-.2.03-.21-.13-.09l-1.02,1.59.97-1.94c-.8.81-.68,1.17-1.29,1.86.32-.71.9-1.64,1.32-2.3-.64.62-1.88,2.37-1.73,3.33.14.85.78,1.42,1.42,1.72.76.36,1.55.34,2.28-.09,0-.12-.21-.19-.11-.35.08.13.21.36.34.22-.03-.16-.11-.23-.09-.29.02-.06.09-.09.14-.12ZM27.03,35.04c.28.02.46-.21.37-.44-.08.21-.25.27-.37.44ZM20.3,35.38s-.04-.07-.08-.06-.07.04-.06.08.04.07.08.06.07-.04.06-.08ZM27.64,34.74c-.14.16,0,.23.09.16.05-.04.15-.13.14-.18s-.15-.08-.23.01ZM26.36,34.97s-.03-.05-.06-.05-.05.03-.05.06.03.05.06.05.05-.03.05-.06ZM26.8,34.93s-.03-.05-.06-.05-.05.03-.05.06.03.05.06.05.05-.03.05-.06ZM16.82,35.9s-.04-.07-.08-.06-.07.04-.06.08.04.07.08.06.07-.04.06-.08ZM24.33,36.61c.43-.47.62-.99.94-1.48-.49.39-.7.94-.94,1.48ZM26.58,35.12c0-.05-.05-.09-.1-.09s-.09.05-.09.1.05.09.1.09.09-.05.09-.1ZM28.12,34.93s-.03-.05-.06-.05-.05.03-.05.06.03.05.06.05.05-.03.05-.06ZM20.06,35.7c-.09.14.05.23.15.19.04-.02.13.02.16-.07.03-.08-.03-.17-.08-.16-.07.01-.2-.02-.24.04ZM17.06,42.75c.3-1.55-.06-3.19-.11-4.67-.2-.08-.45-.12-.61,0l.05,3.07c.02,1.41.47,2.71.87,4.04.25-1.27.3-4.73.2-5.89l-.29-3.36c-.41.25-.03.59-.14.88-.09.23-.35.13-.57.24.14.22.34.05.53.19l.31,4.16-.04,2.2c0,.38-.04.76-.04,1.12l-.26-1.3c-.09-.48-.07-.93-.12-1.44.24.21.18.5.22.76ZM26.63,35.25c-.08.12.05.24.1.14.02-.04.11-.1.1-.13-.02-.05-.15-.09-.19-.01ZM28.7,36.08c0-.47-.41-.82-.71-.91-.42-.13-.95.03-1.13.35-.23.41-.39.87-.03,1.22.3.3.88.34,1.24.21.27-.1.64-.45.64-.87ZM28.47,35.12s-.03-.05-.06-.05-.05.03-.05.06.03.05.06.05.05-.03.05-.06ZM16.89,36.34c-.25-.07-.29-.22-.37-.03.11.17.31.11.37.03ZM20.27,36.22c.21-.02.16-.22.07-.24-.34-.05-.34.26-.36.2.01.04.14.05.29.04ZM15.83,36.64s-.03-.05-.06-.05-.05.03-.05.06.03.05.06.05.05-.03.05-.06ZM16.16,36.72s-.03-.05-.06-.05-.05.03-.05.06.03.05.06.05.05-.03.05-.06ZM20.35,36.7c.13-.05.06-.32-.09-.28-.12.03-.34.04-.23.21.05.07.23.11.32.08ZM13.4,37.17c-.07.02-.14.12-.15.23-.03.36,1.12.8,1.6.56-1.19-.19-1.16-.87-1.46-.79ZM16.12,37.52c-.4-.2-.77-.19-1.13-.27.37.26.77.26,1.13.27ZM20.12,37.76c-.03.12-.15.15-.1.2.1.09.15.1.19.1.42-.01.19-1.03.14-1.16-.03-.07-.28,0-.31.05-.03.03-.02.13.05.17.04.02.08.04.17.13-.09.08-.25.02-.31.19.18.07.28-.06.36.05-.1.09-.21.09-.24.13-.03.03.03.08.06.14ZM16.57,37.4s-.04-.07-.08-.06-.07.04-.06.08.04.07.08.06.07-.04.06-.08ZM16.84,37.44s-.04-.07-.08-.06-.07.04-.06.08.04.07.08.06.07-.04.06-.08ZM51.13,36.18c-.15-.26-.18-.51-.15-.84-.02-.14-.23-.26-.36-.41.02.28.05.55.02.9.12.06.2.03.22.08.05.09-.04.35.26.27ZM20.48,42.81l.4,3.26-.1-2.36-.31-5.62c-.22-.05-.38.09-.42.2-.05.13-.04.31-.03.47l.28,4.54c0,.15.04,3.12.39,2.77l-.21-3.26ZM28.79,37.63s-.03-.05-.06-.05-.05.03-.05.06.03.05.06.05.05-.03.05-.06ZM28.7,37.85s-.03-.05-.06-.05-.05.03-.05.06.03.05.06.05.05-.03.05-.06ZM51,36.9c.14-.2.09-.37-.03-.47-.05.18-.02.32.03.47ZM28.55,38.64s-.03-.05-.06-.05-.05.03-.05.06.03.05.06.05.05-.03.05-.06ZM60.62,36.39c.15-.03.52-.27.38-.46-.49-.64-2.17.64-2.57,2.59-.11.51-.33.92-.45,1.41.99-1.21.69-3.12,2.65-3.54ZM51.11,37.43c.22-.11.11-.3.05-.46-.09.11-.25.46-.05.46ZM51.22,37.84c-.06-.2-.16-.23-.19-.12.02.27.07.35.19.12ZM57.57,39.7c.13-.32.56-2.01.03-1.87-.31.08.05.92.02,1.22-.04.45-.36.76-.53,1.15.21-.11.31-.32.47-.5ZM51.35,38.67s-.03-.05-.06-.05-.05.03-.05.06.03.05.06.05.05-.03.05-.06ZM51.03,38.81s-.03-.05-.06-.05-.05.03-.05.06.03.05.06.05.05-.03.05-.06ZM50.71,38.94s-.03-.05-.06-.05-.05.03-.05.06.03.05.06.05.05-.03.05-.06ZM50.08,41.08c0-.59-.01-1.18-.2-1.74.23-.15.54-.07.63-.35l-4.54,1.52c.19.53.38.99.34,1.51-.42-.49-.02-1.1-.62-1.5.06.69.25,1.28.42,1.88,1.56-.54,2.6-.73,3.99-1.32ZM51.53,39.09c.03-.19-.53-.63-.07,1.5.03-.51-.03-.94.07-1.5ZM50.86,40.19c.07-.48.04-.79-.09-1.1-.05.42,0,.76.09,1.1ZM51.07,39.19s-.04-.07-.08-.06-.07.04-.06.08.04.07.08.06.07-.04.06-.08ZM50.45,39.23c-.01.6,0,1.13.17,1.72.27.07-.13-1.73-.17-1.72ZM50.32,41.09c.17-.67.1-1.22-.14-1.82-.14.66-.05,1.22.14,1.82ZM57.3,41.46c2.35.24,3.29-2.44,2.63-2.35-.35.05-.08,1.08-1.21,1.74-.39.39-.86.51-1.42.61ZM51.23,40.6c.07-.33.07-.51-.06-.66-.06.27-.03.47.06.66ZM45.47,40.84c-.14.57.13,1.01.14,1.6,0,.13.24.03.31-.02-.13.09-.12-1.61-.44-1.58ZM50.96,40.49c-.07-.11-.13-.06-.13.07.04.25.17.21.13-.07ZM45.3,41.18c.01-.25-.3-.22-.25.03.11.51.27.94.24,1.43.55-.24-.06-.35,0-1.47ZM44.38,41.63c.08-.27.07-.39-.06-.44-.03.2-.04.33.06.44ZM45.03,42.69c.04-.56,0-1.06-.14-1.55-.04.56,0,1.06.14,1.55ZM57.45,40.51c.14-.13.38-.15.42-.43-.22.03-.31.24-.42.43ZM44.35,43.02l-.08-1.16c-.09-.21-.13-.39-.27-.54.21.59.09,1.64.34,1.7ZM56.67,40.42c.24.08.31-.06.29-.2-.1.12-.21.12-.29.2ZM42.28,46.38l.8-1.45c.21-.39.83-1.78.9-2.17s-.04-.9-.2-1.29c-.06-.04-.13.16-.17.16-.06,0-.08-.21-.26-.06.55.58.52,1.2.18,1.86-.5.98-.98,1.93-1.42,2.93-.31.72-.67,1.38-1.07,2.04-.18.29-.55.54-.2.93.66-.48,1.16-2.43,1.44-2.94ZM43.37,41.68c-.16-.16-.35,0-.18.17.1.08.06.2.13.21.05,0,.16,0,.19-.06.03-.06-.11-.13-.14-.32ZM55.59,40.62s-.03-.05-.06-.05-.05.03-.05.06.03.05.06.05.05-.03.05-.06ZM56.57,40.54s-.03-.05-.06-.05-.05.03-.05.06.03.05.06.05.05-.03.05-.06ZM42.59,41.95c0,.13.07.18.16.14.03-.02.08-.09.14-.06.18.08.16-.04.14-.12s0-.15-.07-.16c.31.05-.37-.05-.37.2ZM42.51,42.03c0-.06-.06-.1-.12-.1s-.1.06-.1.12.06.1.12.1.1-.06.1-.12ZM42.4,47.52c-.11-.03-.14.14,0,.11-.48.52-.56,1.48-1.31,1.99-.59.4-1.19,0-1.51-.52-.19-.31-.52-.45-.68-.8-1.08.27-2.16.25-3.24.2,1.25-.35,1.92.04,3.14-.28-.53-.65-1-1.15-1.52-1.72-.18-.2-.56-.15-.73.12l.73.1c-.33.23-.67-.14-.91.28h1.16c-.14.3-1.33-.08-1.39.38l1.76.05c-.56.33-1.92-.3-1.97.47l2.23-.06c-.44.29-2.16,0-2.47.33-.43.43-.59,1.06-.91,1.55-.37.57-1.02.69-1.52.26-.28-.24-.51-.67-.84-.84-.65-.02-2.05-.31-2.32.17l2.59.24c-.78.23-3.15-.48-3.31.17l3.94.41c-1.2-.05-2.39-.12-3.62-.26-.5-.06-.91-.09-1.37.39,1.89.22,3.99.28,5.92.59-1.56.07-3.01-.29-4.55-.35l-1.09-.04c-.32-.01-.68-.23-.9.19l6.58.63c-.79.12-1.55-.01-2.33-.09l-4.01-.42c-.41-.04-.84-.13-1.07.32.32-.24.58-.11.9-.08l3.56.32c.63.06,1.24.06,1.87.28l-6.28-.49c2.09.65,4.94.42,6.98.9l-5.87-.49c-.33-.03-.58-.09-.92-.19.24.61.66.55,1.14.57,2.17.09,4.28.2,6.46.54l-5.31-.37c-.53-.04-.98-.12-1.55-.1.02.23.21.28.4.29,1.92.12,3.79.17,5.72.46-1.16.05-2.32-.16-3.54-.21-.66-.03-1.29-.26-1.94,0,.7.27,1.35.06,1.99.2s1.21.08,1.81.15c1.13.14,2.2.22,3.33.27,1.71.07,3.38.17,4.78-.94l-2.85.11c.85-.16,1.72-.22,2.62-.25.33-.01.51.04.79-.18.32-.26.73-.42,1.12-.66.03.09.07.11.18.1.06,0,.06-.17.15-.21.93-.29,1.84-1.26,2.8-1.67,0,.17-.22.16-.25.36.48-.29.96-.52,1.4-.86l2.67-2.1-1.72,1.08,2.57-2.01.68-4.44c.14.67-.12,1.33-.18,2.04s-.22,1.45-.42,2.23c.11.18.49-.06.53-.28.19-1.3.29-2.55.56-3.8,0,1.31-.22,2.5-.55,3.85.31.03.47-.31.48-.62.03-.75.11-1.44.27-2.16.06-.26-.12-.59,0-.84.08-.17.34-.67.01-.7-.4-.04-.8.26-1.15.34-.25,1.51-.3,2.95-.76,4.36l.6-4.3-2.24.66c-1.05.31-2.02.68-3.08.97-.83,1.42-1.61,2.79-2.21,4.34ZM37.06,43.21c-.05-.21-.21-.4-.37-.46-.21-.07-.6-.05-.71.17-.51.98-.95,1.91-1.39,2.88,1.13-.79,1.22-3.5,2.47-2.59ZM44.7,42.81c.08-.39-.08-.56-.19-.77-.03.33.12.53.19.77ZM36.76,44.75l-2.23,4.17c-.26.48-1.17.23-1.4-.21l-2.35-3.4c-.3-.43-.85-.93-.79-1.49.06-.35.71-.39.97-.33.32.07.57.44.75.72l.9,1.35.85,1.15c.1.13.43.43.55.26.22-.32.39-.63.57-1.05-.07-.21-.4.83-.75.8-.1-.01-.23-.07-.32-.19l-1.84-2.62c-.62-.89-1.28-.45-2.46-.44l.39.82c.1.21.41.29.45.43.07.28.31.45.46.68l1.39,2.08s1.07,1.58.93,1.22c.03.07-.02.19.04.23.07.05.19,0,.22.04.02.03,0,.22.04.22.76.09.42.83,1.02.43.05-.03.12.12.21.09.78-.98,1.22-2.1,1.82-3.18.21-.38.27-.78.68-1.1l3.13,3.7c.28-.27,0-.46-.14-.64l-3.11-3.75ZM39.7,46.28c.14.17.36.25.53.17.13-.06.28-.2.35-.37.65-1.71,1.24-2.24,1.67-3.76-1.02,1.34-1.21,2.93-2.14,4.15-.78-.71-1.31-1.53-2.14-2.12.5.76,1.18,1.25,1.73,1.94ZM33.43,48.8c.17.22.58.23.74.17.17-.06.34-.3.45-.51.63-1.19,1.1-2.39,1.8-3.55.08-.13.4-.35.53-.2,1.02,1.21,1.92,2.5,3.07,3.59.42.4,1.04-.14,1.21-.54l1.13-2.51c.44-.97.96-1.85,1.23-2.9-.28-.15-.87-.21-1.04.13l-2,3.99c-.16.32-.62.2-.83,0-1.04-.91-1.86-1.94-2.74-2.99-.12-.15-.37-.29-.51-.27-.16.01-.27.19-.36.35-.68,1.2-1.26,2.41-2.01,3.57-.19.29-.7-.09-.85-.29-.73-.99-1.29-2.01-2.09-2.96-.23-.27-.79-.18-1.05.07,1.1,1.69,2.13,3.27,3.3,4.86ZM51.43,42.19s-.03-.05-.06-.05-.05.03-.05.06.03.05.06.05.05-.03.05-.06ZM37.53,43.86c-.08-.22-.11-.36-.3-.41.11.17.17.31.3.41ZM43.93,43.28c.28-.09.24-.32.1-.42l-.1.42ZM17.45,45.31s-.03-.05-.06-.05-.05.03-.05.06.03.05.06.05.05-.03.05-.06ZM55.2,43.14c0-.3.19-.54-.06-.8-.1.26-.05.57.06.8ZM37.9,44.27c-.05-.19-.16-.26-.31-.29.08.16.2.21.31.29ZM56.78,42.94c.59.74,1.47.41,1.98-.12.1-.1.02-.23-.04-.27-.16-.12-.63.5-1.14.54-.29.02-.57-.21-.8-.15ZM51.99,43.34c-.08.13-.02.24.08.28.13.04.23,0,.24-.11s.01-.26-.06-.28c-.07-.02-.22.04-.26.11ZM20.73,46.35s-.03-.05-.06-.05-.05.03-.05.06.03.05.06.05.05-.03.05-.06ZM20.95,46.33s-.03-.05-.06-.05-.05.03-.05.06.03.05.06.05.05-.03.05-.06ZM22.06,46.81c-.16-.26-.19-.48-.45-.35.16.15.28.28.45.35ZM51.33,44.83c-.03-.36.07-.62-.03-.94l-.27,1.2c-.01.06.17.07.21-.02.02-.04.08-.09.09-.24ZM52.04,43.86c-.06.09-.04.23.05.3.1.07.18-.06.16-.17,0-.06.17-.15.03-.17-.08-.01-.2-.02-.24.04ZM26.06,49.47c-.29-.09-.26-.54-.54-.48-.06.01-.06.15-.06.29-.08-.05-.29-.11-.27-.03.19.44.51.73.75,1.1l-1-1.02.96,1.48c-.37-.26-.49-.65-.89-.82l.45.66c-.29-.04-.36-.28-.54-.44.03.43.41.59.68.84l-.03-.3c.08.06.18.16.3.14.09-.02.31-.06.31-.16-.1-.13-.27-.12-.28-.37.2.01.28.22.41.37.05.05.16-.09.18-.19.06,0,.34.04.28-.08l-.21-.38c.22.05.27.26.43.38,1.15-.62,2.42-1.1,3.4-1.9.09-.08.17-.1.2-.16.16-.05.22-.14.2-.24.15.08.27.14.33.03-.21-.2-.32-.33-.47-.46-.14-.4-.36-.78-.72-1.06-.07.22.1.31.11.45-.21-.08-.24-.25-.41-.41-.05.07-.04.16-.05.23-.1-.08-.16-.12-.22-.11.31-.32.65-.52,1.1-.68-.2-.36-.28-.02-.43.05l-4.09,2.14c-.13.07.12.29.19.22.04-.05.1-.08.21-.21l1.16,1.52c-.51-.33-.76-.91-1.19-1.35-.08.03-.2.16-.2.22l1.04,1.46c-.54-.25-1.08-1.71-1.37-1.33-.17.22.2.27.28.59ZM23.46,48.96c-.93-.59-1.49-1.53-2.56-2.07.78,1.01,1.75,1.77,2.63,2.6.14-.21.08-.44-.07-.53ZM20.37,47.52c-.19-.04-.29-.33-.57-.24.19.42.56.59.87.89l1.29,1.21c-.6-.44-1.14-.92-1.71-1.42-.23-.2-.3-.53-.66-.66-.22.32.13.41.31.57l2.22,2.03c-.72-.49-1.34-1.08-2.02-1.66.1.08-1.3-1.47-.8-.43-.16-.08-.26-.12-.39-.26-.05.07-.04.15-.05.22-.06-.02-.13-.06-.18-.05-.08.02-.05.13-.04.19-.12-.03-.21-.23-.37-.08.13.26.34.37.52.6-.13,0-.12.18-.03.23l.19.1c.18.31.93,1.72,1.08,1.04.09.03.21.1.21,0,0-.15.16-.17.02-.24.11.1.21.21.25.31-.63.38-1.14.68-1.83.67-.15.29-.29.49-.47.73.16.14.35.06.54.02.13-.02.11-.3.24-.36.67-.31,1.34-.55,1.98-.9-.02-.16-.17-.24-.17-.34.17.06.31.27.48.39-.63.43-1.32.5-1.86,1.01.39.27.74.35,1.02.63.63-.19,1.14-.61,1.78-.69l-2.06,1.06c.46-.53-.53-.75-.94-.97-.17.2-.48.71-.25.98.19.22.78.36,1.04.28l1.83-.61c.39-.13.36-.36.7-.58l-1.02,1.76c.71-.21.74-.91,1.24-1.36.35-.37-1.15,1.9-.83,1.48-.06.07-.25-.08-.35-.01-.18.12-.07.64.17.75.3.13.67.32.96.29.27-.02.17-.47-.09-.55-.15-.05-.32-.04-.55.24-.04-.23-.04-.41.03-.57.21.33.66.43.83.16.28-.46.44-.94.81-1.29.07.23-1.15,1.59-.75,1.85.05.03.14.06.22-.05l.58-.85c.12-.18.13-.34-.02-.48.12-.05.17.1.25.11.07,0,0,.2,0,.31.62.52,1.23,1.09,2,1.47.09.18.31.28.48.38.46.45.93.95,1.53,1.19.11.04.17.17.34.18-.03-.11-.11-.13-.12-.2.11,0,.2.07.34.06-.15-.23-.44-.29-.57-.57l.65.35c-.04-.49-.56-.52-.85-.77-1.31-1.16-2.17-1.46-3.27-2.6.61.46,1.16.89,1.79,1.33l.9.63c.47.33.8.86,1.46.9l-2.73-2.05c-.44-.33-.89-.63-1.24-1.09.69.31,1.11.85,1.69,1.28l2.22,1.62c.14-.27-.15-.35-.34-.49l-3.22-2.51c1.38.81,2.28,1.84,3.59,2.58.15-.1.03-.3-.09-.4l-2.4-1.83c-.77-.59-1.56-1.05-2.21-1.89.43.17.65.68,1.06.97l3.71,2.63c-.44-.51-.93-.86-1.42-1.25l-2.95-2.29c-1.08-.84-1.89-1.95-3.07-2.7-.01-.09-.12-.16-.25-.21-.07-.27-.31-.46-.59-.6.1.21.34.23.36.51-.24-.09-.43-.27-.54-.51-.1.18.05.25.08.43ZM52.3,44.47c-.11-.18-.25-.1-.25.07.04.27.29.22.25-.07ZM30.57,46.88c-.19,0-.13-.33-.45-.29.41.48.63,1.08,1.18,1.54-.12-.39-.5-.59-.6-1.05l.59.61-.81-1.26c-.1.22.09.3.1.44ZM36.84,46.17c0,.1.12.18.15.16.05-.05.04-.13.02-.16-.03-.04-.18-.1-.17,0ZM31.01,46.79s-.03-.05-.06-.05-.05.03-.05.06.03.05.06.05.05-.03.05-.06ZM51.85,45.1c-.03.1.08.16.11.17s.13.02.15-.07c.01-.05-.28-.06-.27-.1ZM31.13,47s-.03-.05-.06-.05-.05.03-.05.06.03.05.06.05.05-.03.05-.06ZM31.33,47.46c.1.02.06-.17,0-.19-.04-.01-.1-.12-.13-.09-.18.15.85.44.13.28ZM30.93,53.89c2.66.14,5.22.33,7.84.15.88-.06,4.8-2.59,5.86-3.21,1.58-.92,3.03-1.9,4.49-3.02.96-.73,1.96-1.41,2.54-2.44l-4.58,3.44c-1.24.93-2.54,1.62-3.88,2.4l-3.9,2.29c-.28.16-.32.16-.67.17l-4.71.08c-.65.01-1.23-.03-1.86.04-.38.04-.8-.21-1.11.1ZM52.58,45.39s-.03-.05-.06-.05-.05.03-.05.06.03.05.06.05.05-.03.05-.06ZM52.88,45.47s-.04-.07-.08-.06-.07.04-.06.08.04.07.08.06.07-.04.06-.08ZM53.15,45.56s-.03-.05-.06-.05-.05.03-.05.06.03.05.06.05.05-.03.05-.06ZM51.59,46.27s.09-.09.03-.2c-.14.08-.18.22-.3.37-.07.08-.24.09-.27.22,0,.03-.07.05-.11.13-.12.03-.27.04-.31.25-.21.02-.33.19-.52.37-.09.08-.3.06-.31.25-.08.05-.28.03-.31.22-.25.09-.49.22-.74.41-1.11.82-2.2,1.6-3.39,2.31l-3.53,2.09c-.41.24-.89.41-1.22.81-.15-.04-.26.21-.42.25-1.05.27-.96.96-2.56.86.33-.27.8.08,1.12-.3l-9.27-.1c.94.39,1.93.16,2.91.18l3.37.07c.5.01.98-.12,1.43.09-.49.12-.88.03-1.33.02l-3.9-.08h-2.46c-.09-.01-.05.31.08.31l1.45-.02,4.96.05c-.59.25-1.16.12-1.75.11l-2.32-.03c-.89-.01-1.72-.11-2.62.03.13.4,2.44.29,2.87.29,1.12,0,2.18,0,3.32.07-.37.26-.8.11-1.23.1l-1.09-.03c-1.28-.03-2.57.12-3.85-.15-.5.61,3.19.39,3.55.4l2.32.04c-.52.27-1.03.13-1.53.12l-1.1-.02c-1.12-.02-2.15.05-3.28-.16-.17.43,4.28.36,4.61.36.52,0,1.01-.22,1.47.09-1.26-.06-2.52.08-3.68.04l-2.51-.09c1.54.59,3.05.25,4.54.22-.15.24-.5-.07-.59.32l1.59-.06c1.3-.05,2.56.11,3.84.02,3.49-.23.76.59,3.24-.9l1.8-1.09c-.86.74-1.83,1.24-2.86,1.95.18,0,.51.18.75.02l8.87-5.97c.07.35-.43.18-.43.53.26-.2,1.84,1.69,2.08,1.97.17.21.66.05.68-.16.05-.44-.24-.64-.29-1.03.5.2.29,1.62.7,1.3.06-.04.04-.9-.05-.98l-.79-.73c-.46-.42-.81-.97-1.46-1.2.22-.32.56-.37.74-.7.71-.35,1.32-.86,1.85-1.49.27-.32.66-.56.69-.95.14,0,.12-.16,0-.12.19-.21.48-.32.43-.73-.19-.06-.38-.08-.58-.09-.85.99-1.8,1.8-2.84,2.58-.35.26-.57.63-.98.8.72-.81,1.62-1.37,2.41-2.11l1.27-1.19c.12-.11-.13-.22-.2-.23-.14-.03-.96.92-.83.81-.92.8-1.81,1.59-2.8,2.28l3.06-2.67c.14-.13.19-.3.45-.4-.05-.1-.15-.09-.26-.12-.08-.03-.13.06-.22.17-.66.69-1.37,1.29-2.13,1.87-.4.31-.67.73-1.2.98.62-.66,1.37-1.2,2.09-1.85l1.26-1.14c.03-.11-.17-.11-.35-.14-.35-.28-.4.21-1.02.52ZM53.48,45.64s-.03-.05-.06-.05-.05.03-.05.06.03.05.06.05.05-.03.05-.06ZM53.82,45.72s-.03-.05-.06-.05-.05.03-.05.06.03.05.06.05.05-.03.05-.06ZM31.53,47.9c0-.05-.05-.09-.1-.09s-.09.05-.09.1.05.09.1.09.09-.05.09-.1ZM49.68,46.3s-.03-.05-.06-.05-.05.03-.05.06.03.05.06.05.05-.03.05-.06ZM54.45,45.89s-.04-.07-.08-.06-.07.04-.06.08.04.07.08.06.07-.04.06-.08ZM49.46,46.48c0-.05-.05-.09-.1-.09s-.09.05-.09.1.05.09.1.09.09-.05.09-.1ZM25.59,48.56c.02.1.1.17.14.16.04,0,.08-.09.11-.12.07-.05.01-.11-.03-.1-.06.01-.23-.02-.22.06ZM25.51,48.75s-.09-.11-.12-.1c-.34.13-.4.18-.36.3.04.11.62-.11.49-.2ZM49.17,46.67s-.03-.05-.06-.05-.05.03-.05.06.03.05.06.05.05-.03.05-.06ZM24.93,49.03c0-.06-.06-.1-.12-.1s-.1.06-.1.12.06.1.12.1.1-.06.1-.12ZM30.83,48.92c.57-.07,1,.08,1.57.12-.18-.27-.33-.54-.57-.68-.1-.06-.33.09-.37.17.2.1.43-.13.47.14-.45-.06-.85-.19-1.1.25ZM24.94,49.89c-.08-.22-.12-.36-.3-.41.11.18.16.32.3.41ZM24.92,50.77c-.25-.41-.49-.76-.8-1,.15.51.52.73.8,1ZM40.4,49c.06-.21-.13-.36-.16-.29-.06.13-.12.25-.1.31s.17.17.26-.02ZM40.52,49.2c.1-.23.14-.27.14-.37,0-.08.03-.15-.12-.16.04.23-.14.35-.02.53ZM18.71,51.89c.07-.19.08-.41,0-.43-.16-.03-.53-.04-.59.14-.08.25.48.55.59.29ZM29.19,53.65c-.84-.88-1.85-1.39-2.75-2.09-.1-.08-.1-.29-.2-.32-.13-.04-.25-.04-.36.12l1.91,1.47c.42.32.82.72,1.39.83ZM19.73,53.97c-.06-.32.93-1.07,1.1-1.61-.69.02-1.42,1.22-1.88,1.79.16.24.47.06.68-.05-.01.14-.03.22-.08.27-.05.04-.14.01-.23,0-.65-.12-.34.99-.32,1.43.58.22,1.3.33,1.89.09.01-.11-.02-.38-.03-.44-1.06-.04-1.17-.1-1.49.27.5-.54.07-.78.23-1.2.17.22.04.47.13.75.47-.02.86.2,1.39-.05-.09.19-.12.37-.08.67.52-.5.99-.93,1.45-1.52-.68-.12-.78.57-1.32.84.14-.48.61-.66.93-.97-.26-.12-.55-.09-.65-.21-.13-.16-.32-1.33.26-1.92-.94-.04-1.4,1.52-1.98,1.87ZM53.08,49.97c-.42-.24-.74-.3-1.14-.27.38.16.76.41,1.14.27ZM52.77,50.64c.1-.13.17-.29.09-.47-.77-.1-.9-.52-1.41.06.35.25,1.03.78,1.31.41ZM52.86,50.71c0,.21.31.12.41.04.12-.1.23-.18.17-.33-.05-.11-.18-.31-.31-.26l-.27.56ZM41.91,51.57c.13-.17-.06-.2-.22-.03-.23.13-.04.15.22.03ZM31.05,52.89c-.77-.05-1.48-.34-2.22-.07,1.35.12,2.65.28,4.13.23-.59-.16-1.21-.12-1.9-.16ZM41.45,51.73s-.03-.05-.06-.05-.05.03-.05.06.03.05.06.05.05-.03.05-.06ZM23.72,55.42c.37.2.25.54.38,1.03,1.01-.71,1.02-1.11.97-2.47-.41.49-.16.99-.34,1.47-.24-.04-.4.19-.66.26-.02-.32.37-.23.51-.42.26-.36.29-1.02.13-1.45-.11-.28-.52-.42-.71-.62-.34.29-.3.63-.43.95-.19.44-.21.86.16,1.23-.14-.05-.33-.13-.39-.23-.07-.32.07-.6.08-1.04-.45.1-.48.49-.47.88.03.64.32,1.03.95,1.27.06-.36-.03-.61-.18-.86ZM50.76,53.33c-.16-.81-.62-1.39-1.12-2.03-.09-.12-.42.23-.34.39.41.88.61,1.83,1.46,1.64ZM36.41,53.23l-2.94-.07c-1.17-.03-2.29.03-3.46-.12-.26-.03-.5-.01-.76.01-.14.4,2.06.26,2.42.26h1.12s1.1.02,1.1.02c.3,0,2.38.05,2.53-.11ZM52.08,53.4c-.51-.8-1.11-1.31-1.81-1.92.42,1.32.48,1.25,1.81,1.92ZM49.17,51.84s-.03-.05-.06-.05-.05.03-.05.06.03.05.06.05.05-.03.05-.06ZM46.49,54.22c.77-.5,1.39-1.16,2.3-1.5l-3.07,2.15c-.51.36-1.04.57-1.51.96.5-.15.9-.39,1.36-.58.56-.23.96-.66,1.49-.92.77-.38,1.4-.93,2.15-1.41-.23-.36-.3-.62-.41-1.04l-6.2,4.38c.62-.25,1.13-.61,1.66-1.02l4.08-2.62c-.73.76-1.69,1.17-2.57,1.77l-2.94,1.99c.53-.07.95-.36,1.34-.68s.83-.5,1.24-.77l1.08-.7ZM49.3,52.05s-.03-.05-.06-.05-.05.03-.05.06.03.05.06.05.05-.03.05-.06ZM30.61,53.77c-.44-.07-.72-.05-.99.08.39.06.69.01.99-.08ZM30.84,53.85s-.03-.05-.06-.05-.05.03-.05.06.03.05.06.05.05-.03.05-.06ZM38.93,53.17c-.37-.07-.58-.06-.77.06.31.06.54.03.77-.06ZM49.55,52.98c.1-.29-.05-.49-.2-.67-.03.3.11.46.2.67ZM25.52,54.74s-.03-.05-.06-.05-.05.03-.05.06.03.05.06.05.05-.03.05-.06ZM26.45,55.37c-.21-.29-.49-.41-.81-.57.21.29.46.46.81.57ZM50.47,53.57l-.82-.52c-.27.58.88.8.73.83.07-.01.23-.22.09-.31ZM53.01,53.32c-.35-.35-.67-.21-.9.11.31.07.61.1.9-.11ZM33.05,56.4c-1.32.03-2.55.16-3.8-.13-.18.55,3.85.28,3.8.13ZM31.66,56.97s-.03-.05-.06-.05-.05.03-.05.06.03.05.06.05.05-.03.05-.06ZM33.54,57.02c-.59.05-1.14-.11-1.79.03.58.17,1.16.16,1.79-.03ZM34.19,56.97s-.03-.05-.06-.05-.05.03-.05.06.03.05.06.05.05-.03.05-.06ZM39.27,57.08l-2.74.35c.69.07,1.31-.1,1.98-.11.82-.01,1.66.03,2.44-.47-1.17.02-2.29.04-3.47.12-.9.06-1.75-.16-2.64.05l1.9.06c-.64.27-1.22.04-1.89.14,1.13.31,3.21-.22,4.42-.14ZM42.41,56.63c.18-.2.12-.37-.11-.19-.19.07-.12.27.11.19ZM33.44,57.26s-.03-.05-.06-.05-.05.03-.05.06.03.05.06.05.05-.03.05-.06ZM34.61,57.16s-.04-.07-.08-.06-.07.04-.06.08.04.07.08.06.07-.04.06-.08Z"/>
  <path class="st0" d="M19.16,48.63c0,.07,0,.15.02.22l-.23-.09c-.07-.1-.12-.21-.16-.32.07.08.23.09.37.2Z"/>
  <path class="st0" d="M19.51,48.82c-.13-.11-.26-.13-.35-.19l-.02-.22c.23.08.34.23.37.41Z"/>
  <path class="st0" d="M20.07,48.99c-.28-.1-.43-.3-.48-.51.21.09.41.21.48.51Z"/>
  <path class="st0" d="M29.89,47.93c-.14-.09-.18-.18-.25-.31.08.09.23.13.25.31Z"/>
  <path class="st0" d="M51.57,27.15l.48.51c-.52-.18-.99-.55-1.47-.91l-1.09-.81c.34-.05,1.55,1.19,2.08,1.22Z"/>
  <path class="st0" d="M52.41,46.01c.03-.08.07-.22.19-.25.06.09-.1.23-.19.25Z"/>
  <path class="st0" d="M26.97,55c-.11-.02-.18-.11-.24-.2.09.02.13.1.24.2Z"/>
  <path class="st0" d="M19.3,48.95s-.08-.03-.12-.1c.02,0,.07.04.12.1Z"/>
  <path class="st0" d="M19.63,48.92l-.12-.1.12.1Z"/>
  <path class="st0" d="M30.39,48.58c-.2-.12-.46-.31-.5-.65.23.14.33.46.5.65Z"/>
  <path class="st0" d="M51.59,49.27c.03-.1.1-.13.2-.24-.08.01-.13.21-.2.24Z"/>
  <path class="st0" d="M51.49,46.86c-.03.15-.16.23-.31.25.03-.15.16-.23.31-.25Z"/>
  <path class="st0" d="M52.41,48.54c-.09.17-.17.15-.31.25.05-.11.11-.19.31-.25Z"/>
  <path class="st0" d="M52.41,46.01c-.09.23-.23.34-.41.37.08-.25.24-.32.41-.37Z"/>
  <path class="st0" d="M19.65,49.14l.02.22c-.23-.09-.34-.23-.37-.41l.35.19Z"/>
  <path class="st0" d="M26.74,54.8l-.22.02c-.08-.07-.15-.16-.25-.31.17,0,.35.07.47.29Z"/>
  <path class="st0" d="M19.99,49.33c-.1-.04-.19-.11-.35-.19l-.02-.22c.16.06.32.15.37.41Z"/>
  <path class="st0" d="M20.43,49.29c-.17-.08-.32-.17-.36-.3.15.05.2.15.36.3Z"/>
  <path class="st0" d="M51.59,49.27c-.03.12-.06.19-.08.25-.21.1-.42.16-.63.36.14-.29.38-.49.71-.61Z"/>
  <path class="st0" d="M19.3,26.93c-.16-.02-.2-.15-.25-.2.2-.01.25.09.25.2Z"/>
  <path class="st0" d="M26.5,50.55c-.22,0-.2-.24-.26-.33.18.08.32.18.26.33Z"/>
  <path class="st0" d="M53.23,47.81c-.2.35-.48.64-.82.73.15-.3.5-.61.82-.73Z"/>
  <path class="st0" d="M51.32,46.44c.12-.07.21-.14.27-.17-.11.18-.16.3-.32.39.02-.08,0-.19.05-.22Z"/>
  <path class="st0" d="M26.27,54.51c-.11-.02-.19-.05-.24-.07.05-.18.13-.09.17-.03l.07.1Z"/>
  <path class="st0" d="M46.67,48.37c-.42.48-.96.8-1.49,1.03.49-.41.93-.85,1.49-1.03Z"/>
  <path class="st0" d="M42.38,51.07h-.22c1.13-1.01,2.41-1.73,3.62-2.62-.9.92-2.54,1.73-3.4,2.62Z"/>
  <path class="st0" d="M51.9,46.49c.04-.07.09-.09.1-.12l-.1.12Z"/>
  <path class="st0" d="M51.9,46.49c-.03.12-.1.22-.31.25.03-.12.1-.22.31-.25Z"/>
  <path class="st0" d="M20.03,49.8c-.15-.08-.35-.18-.37-.44.19.07.4.22.37.44Z"/>
  <path class="st0" d="M49.94,47.98c-.21.32-.54.53-.93.72l.71-.7c.07-.01.15,0,.22-.02Z"/>
  <path class="st0" d="M20.26,49.55c-.15-.07-.26-.14-.27-.23.16.06.2.16.27.23Z"/>
  <path class="st0" d="M46.98,48.12c-.05.11-.11.18-.31.25.07-.08.09-.23.31-.25Z"/>
  <path class="st0" d="M19.05,26.74c-.06-.06-.1-.07-.12-.1.05.06.1.07.12.1Z"/>
  <path class="st0" d="M49.68,18.96c-.35.35-.84.46-1.27.76.12.29.34.46.58.58l-.78-.34c.07-.16.15-.32.16-.57.52.07.86-.35,1.31-.43Z"/>
  <path class="st0" d="M40.52,53.74c.02-.06.05-.12.08-.24.62-.07,1.05-.6,1.71-.77-.56.37-1.09.78-1.79,1.01Z"/>
  <path class="st0" d="M26.23,50.22c-.16-.04-.2-.16-.25-.31.16.07.19.23.25.31Z"/>
  <path class="st0" d="M47.61,20.78c.01-.28.22-.49.49-.7-.03.36-.29.53-.49.7Z"/>
  <path class="st0" d="M20.8,49.69c-.24-.09-.35-.21-.38-.4.13.13.38.15.38.4Z"/>
  <path class="st0" d="M50.64,47.15c0-.06-.01-.1,0-.11.21-.02.27-.13.31-.25.1-.03.12-.09.11-.13.16.19-.2.44-.41.49Z"/>
  <path class="st0" d="M18.93,26.64c-.21.02-.21-.11-.24-.2.11.01.18.12.24.2Z"/>
  <path class="st0" d="M49.81,47.77l-.09.23c-.13.02-.18.08-.27.12-.18.08,0-.02.04-.23l.32-.11Z"/>
  <path class="st0" d="M26.56,50.09c-.12-.03-.24-.1-.26-.31.15.03.19.2.26.31Z"/>
  <path class="st0" d="M42.4,47.63v-.11c.15-.01.16.12,0,.11Z"/>
  <path class="st0" d="M51.49,46.86s.06-.05.1-.12l-.1.12Z"/>
  <path class="st0" d="M48.11,20.07s.03-.08.1-.12c-.03.07-.09.09-.1.12Z"/>
  <path class="st0" d="M50.57,47.6c-.16.25-.43.31-.63.38.16-.24.42-.33.63-.38Z"/>
  <path class="st0" d="M41.2,24.29c-.05,0-.18.03-.23-.08.15.03.17.02.23.08Z"/>
  <path class="st0" d="M18.7,26.44c-.08-.01-.16.03-.24.02.03-.05.03-.11,0-.23.1-.01.21.11.25.21Z"/>
  <path class="st0" d="M50.02,47.64s-.09.09-.21.13v-.11s.21-.02.21-.02Z"/>
  <path class="st0" d="M19.63,54.1s.04-.06.1-.13c-.04.08-.07.11-.1.13Z"/>
  <path class="st0" d="M50.64,47.15c0,.13-.13.19-.31.25.03-.12.11-.21.31-.25Z"/>
  <path class="st0" d="M47.29,47.87c-.03.12-.12.2-.31.25,0-.15.18-.14.31-.25Z"/>
  <path class="st0" d="M25.99,49.92c-.25-.11-.4-.33-.52-.63.23.08.41.33.52.63Z"/>
  <path class="st0" d="M41.44,24.27l1.47.96c-.53-.33-1.19-.46-1.71-.93.1,0,.2-.04.25-.03Z"/>
  <path class="st0" d="M53.84,47.21c-.15.33-.35.5-.61.6.13-.23.27-.51.61-.6Z"/>
  <path class="st0" d="M51.08,47.22l.1-.12-.1.12Z"/>
  <path class="st0" d="M42.06,51.19c-.04-.11.07-.09.11-.12-.06.06-.08.11-.11.12Z"/>
  <path class="st0" d="M51.08,47.22c-.07.21-.25.3-.52.37.11-.17.22-.33.52-.37Z"/>
  <path class="st0" d="M27.53,55.07l-.22.02-.12-.1c-.44-.57-2.01-1.31-2.58-2.08l1.19.85c.61.44,1.27.76,1.74,1.31Z"/>
  <path class="st0" d="M50.33,47.4c-.06.07-.09.25-.31.25l.09-.23.22-.02Z"/>
  <path class="st0" d="M54.05,47.08c-.11.06-.15.11-.21.13.04-.1.1-.13.21-.25,0,.07,0,.11,0,.12Z"/>
  <path class="st0" d="M21.96,33.75l-.03-.11c.07.11.21-.27.23-.07.01.1-.18.11-.2.18Z"/>
  <path class="st0" d="M46.55,32.85c-.03.13.16.16.12.01.83.13,1.39,1.98,1.37,2.64-.04,1.17-.42,2.47-1.58,3.04-1.03.5-3.01.16-3.84-1.1-.69-1.05-.64-2.3-.22-3.42.31-.83.9-1.23,1.7-1.52.87-.32,1.67-.09,2.45.35ZM44.47,32.98s-.03-.05-.06-.05-.05.03-.05.06.03.05.06.05.05-.03.05-.06ZM44.02,33.4c-.05-.19-.16-.26-.31-.29.08.16.2.21.31.29ZM44.93,33.42c-.1-.15-.1-.19-.14-.31-.13.06-.08.18-.01.23.03.02.09.11.16.08ZM45.15,33.15s-.03-.05-.06-.05-.05.03-.05.06.03.05.06.05.05-.03.05-.06ZM46.27,33.86c-.32-.28-.43-.67-.89-.8.22.36.57.55.89.8ZM43.31,33.52s-.03-.05-.06-.05-.05.03-.05.06.03.05.06.05.05-.03.05-.06ZM46.47,33.63c-.1-.23-.24-.32-.42-.39.12.2.27.27.42.39ZM44.59,35.22c.29-.34.35-.72.17-1.09-.12-.24-.41-.46-.79-.48-.49-.04-.88.35-1,.73-.15.44.07.99.49,1.19s.84,0,1.14-.34ZM45.82,34.33c-.24-.37-.47-.56-.74-.81.12.39.4.7.74.81ZM45.83,33.91c-.05-.19-.16-.26-.31-.29.08.16.2.21.31.29ZM43.94,36.82c.05.41.23.53.32.76l-.07-.58c.57.71.13.63.72,1.14-.29,0-.28-.32-.5-.46-.1-.06-.22.18-.09.23.05.02.13.09.12.26l-.57-.81c.03.37.23.58.32.93,1.11.31,2.34.14,3.06-.77.51-.64.54-1.39.17-2.07-.16-.29-.11-.7-.53-.73.17.32.41.49.25.72-.32-.62-.6-1.25-1.2-1.53.45.72,1.01,1.14,1.03,1.89-.4-.49-.45-1.06-.97-1.37.23.49.53.85.66,1.38l-.92-1.32c.02.61.55.89.7,1.52-.33-.42-.63-.87-.96-1.36-.18-.27-.22-.68-.65-.79l1.32,2.31c-.28-.18-1.02-1.65-1.12-1.5-.02.03-.07.07-.1.13.04-.07,1.05,1.56,1.04,1.73l-1.09-1.52c.1.71.69,1.08.87,1.76-.13,0-1-1.81-1.09-1.38.26.65.85,1.03.89,1.74-.28-.48-.51-.93-.88-1.38-1.1-1.41.93,1.93.72,1.7l-1.22-1.83c.14.74.67,1.23.97,1.94-.17.16-.7-1.53-1.42-1.74.08.15,1.33,1.65,1.09,2.02-.5-.75-.22-.64-.9-1.04ZM46.63,33.79s-.03-.05-.06-.05-.05.03-.05.06.03.05.06.05.05-.03.05-.06ZM47.49,33.88c0-.08-.07-.13-.15-.13s-.13.07-.13.15.07.13.15.13.13-.07.13-.15ZM47.66,34.14s-.03-.05-.06-.05-.05.03-.05.06.03.05.06.05.05-.03.05-.06ZM42.8,35.48c.01-.15,0-.25-.04-.42-.14.02-.03.15-.13.23-.08.07-.04.13.17.19ZM43.18,35.68c.42.28.47.71.71,1.06,0-.66-.45-1.03-.97-1.34.18.69.5,1.25.91,1.76l-.64-1.47ZM42.85,35.87s-.03-.05-.06-.05-.05.03-.05.06.03.05.06.05.05-.03.05-.06ZM43,36.14s-.04-.07-.08-.06-.07.04-.06.08.04.07.08.06.07-.04.06-.08ZM43.11,36.4s-.03-.05-.06-.05-.05.03-.05.06.03.05.06.05.05-.03.05-.06ZM43.33,36.99c.03-.25-.09-.34-.18-.43-.05.21.12.31.18.43ZM43.61,37.19c0-.05-.05-.09-.1-.09s-.09.05-.09.1.05.09.1.09.09-.05.09-.1ZM43.04,37.54c.1.02.07-.17,0-.19-.04-.01-.1-.12-.13-.09-.17.15.84.45.13.28ZM43.3,37.27s-.03-.05-.06-.05-.05.03-.05.06.03.05.06.05.05-.03.05-.06ZM43.43,37.48s-.03-.05-.06-.05-.05.03-.05.06.03.05.06.05.05-.03.05-.06ZM43.57,37.74s-.04-.07-.08-.06-.07.04-.06.08.04.07.08.06.07-.04.06-.08ZM43.99,38.15c-.03-.19-.09-.43-.32-.53.09.19.1.38.32.53Z"/>
  <path class="st0" d="M46.67,32.87h-.12c0-.16.13-.13.12,0Z"/>
  <path class="st0" d="M39.57,34.89l-.02-.22c.08,0,.02-.16.09-.23.14-.15.29-.33.39-.58-.08.29-.11.8-.46,1.03Z"/>
  <path class="st0" d="M31.34,33.73c-.07.04-.21.14-.26.13-.07-.02-.11-.07-.04-.12.21-.15.25-.82.55-.95-.04.37-.28.65-.25.94Z"/>
  <path class="st0" d="M40.03,33.86c.16-.42-.22-.81-.33-1.29.41.26.76.9.33,1.29Z"/>
  <path class="st0" d="M39.7,32.57c-.09-.06-.18-.08-.23-.09-.04-.25-.15-.22-.25-.31-.05-.25-.84-1.32-1.11-1.45-.15-.37-.26-.42-.49-.62-.11-.41-.37-.65-.62-.94-.45-.52-.73-1.17-1.25-1.55-.04-.26-.24-.32-.39-.53.24-.48,1.49,1.78,1.85,1.98.36-.03,1.45-.1,1.56-.27.04-.06,0-.18.13-.23.04.21-.07.54-.27.56l-1.35.11,2.14,2.82c.14.18.24.32.28.51Z"/>
  <path class="st0" d="M34.43,39.18c-.11-.1-.13-.15-.28-.33.07.08.28.08.28.33Z"/>
  <path class="st0" d="M38.07,37.99c.1-.45.29-.88.56-1.15-.06.46-.28.89-.56,1.15Z"/>
  <path class="st0" d="M37.88,38.33c.05-.19.04-.21.19-.35-.04.19-.05.21-.19.35Z"/>
  <path class="st0" d="M39.38,35.24l-.02-.22.21-.13c-.02.12-.03.31-.19.35Z"/>
  <path class="st0" d="M34.43,39.18c.52.47.82,1.13,1.48,1.37.31.12.66-.13.7-.37.48.04.72-1.34,1.27-1.85-.16.66-.55,1.16-.82,1.74-.21.43-.69.68-1.19.62-.7-.09-1.44-1.43-1.44-1.51Z"/>
  <path class="st0" d="M38.64,36.84c.04-.27.2-.46.26-.79.23-.18.22-.49.27-.68.11-.05.15-.12.21-.13.03.35.11.69.06,1.11-.19-.18-.02-.41-.18-.67-.08.3-.27.57-.33.89-.04.21-.17.16-.29.28Z"/>
  <path class="st0" d="M35.75,27.61c.04.28,1.43,2.13,1.87,2.49.06.22.22.5.49.62.22.53.66,1.02,1.11,1.45.03.15.17.29.25.31.06.36.54.67.42,1.06l-.26.91s-.1.1-.09.23c-.21,0-.1.3-.19.35-.14.07-.12.25-.19.35-.19.24-.23.45-.27.68-.34.26-1.98,3.43-2.29,4.14-.23-.04-.68.23-.88-.02l-2.82-3.62c-.59-.76-1.21-1.45-1.61-2.37-.09.09-.06.25.02.39.85,1.5,1.87,2.82,2.83,4.29-1.15-1.5-2.28-3.07-3.23-4.72.13-.11.23-.09.29-.11.13-.03.12-.22.13-.3l.53-1.12-.27.18c.02-.23.32-.45.3-.73-.03-.37-.05-.69.3-.95-.03.28-.35.4-.22.72.39-.37.39-.93.73-1.32.37-.42.61-.84.82-1.35.26-.63.71-1.16,1-1.78.15-.32.43-.5.76-.33-.23.19-.46.05-.55.3.38-.01.72.03,1.02.25ZM37,38.79l1.49-2.9c.42-.83.89-1.6,1.04-2.51-.28-.6-.68-1.09-1.09-1.6-1.02-1.28-1.98-2.53-2.91-3.88-.11-.15-.34-.21-.48-.2-.12.01-.31.17-.37.33-.21.54-.49.98-.76,1.48l-2.07,3.85c-.25.46-.24.87.09,1.3l1.87,2.47c.63.84,1.21,1.67,1.88,2.47.14.17.33.27.51.24.27-.06.64-.72.81-1.06ZM31.9,32.44c.32-.36.48-.74.61-1.12-.3.38-.47.74-.61,1.12Z"/>
  <path class="st0" d="M28.28,33.97c-.1-.02-.13-.17-.2-.16-.11.02-.16.14-.21.21-.16-.98-2.28-.18-2.72-.02.09-.32.25-.41.41-.56.02.18-.17.17-.17.36.26-.1.6-.08.76-.28l.46-.59c0,.11-.12.16-.19.37.41.24.74-.01.99-.36.59-.84,1.03-1.74,1.77-2.43-.22.37-1.95,2.58-1.79,2.9l1.36-1.63c-.39.52-.77,1.05-1.09,1.61,0,.09.23.15.31.15.24,0,.45-.6.66-.67-.15.39-.71.49-.32,1.11Z"/>
  <path class="st0" d="M42.99,38.54c-.6.15-.98-1.13-1.32-1.32-.06.48.13.85.02,1.25-.21-.56-.06-1.09-.15-1.65-.14-.94-.28-1.92.12-2.79-.08.94-.3,1.81,0,2.67.35.72.66,1.39,1.33,1.84Z"/>
  <path class="st0" d="M29.26,42.02c-.4-.42-.57-.97-.98-1.52,1.02-.62.88-.85,1.52-1.75.2.25-.99,1.78-1.32,1.75l.78,1.52Z"/>
  <path class="st0" d="M24.65,40.25c.33.18.74.18.87.6-.65-.14-1.24-.46-1.54-1.09.35,0,.4.35.67.5Z"/>
  <path class="st0" d="M27.81,43.02c-.45-.24-.93-2.02-1.36-2.09l1.63,3.09c-.78-.95-1.18-2.01-1.8-3.01-.04-.06-.26.1-.32.06-.07-.04-.18-.11-.18-.26.31.15.55,0,.91.01l.49.92c.22.42.42.77.63,1.27Z"/>
  <path class="st0" d="M22.49,39.22c-.18-1.03-.27-2.07-.27-3.18.18,1.03.27,2.07.27,3.18Z"/>
  <path class="st0" d="M50.4,38.49c-.16-.71-.21-1.42-.19-2.2.16.71.21,1.42.19,2.2Z"/>
  <path class="st0" d="M28.37,43.23c-.55-.8-1.06-1.58-1.47-2.47.68.76,1.03,1.61,1.47,2.47Z"/>
  <path class="st0" d="M42.29,40.28c-.14-.45-.17-.91-.13-1.44.14.45.17.91.13,1.44Z"/>
  <path class="st0" d="M40.04,37.17c-.13-.41-.16-.84-.12-1.33.13.41.16.84.12,1.33Z"/>
  <path class="st0" d="M30.57,24.93c-.34.12-.69.15-1.1.1.32-.13.67-.16,1.1-.1Z"/>
  <path class="st0" d="M40.59,36.01c-.1-.34-.14-.68-.09-1.1.13.31.16.62.09,1.1Z"/>
  <path class="st0" d="M48.53,28.9c-.21.04-.31-.21-.5-.31-.39-.19-.76-.35-1-.71.28.16.5.36.84.42.15.27.42.26.67.6Z"/>
  <path class="st0" d="M42.78,39.67c-.09-.3-.13-.61-.08-.99.12.27.15.55.08.99Z"/>
  <path class="st0" d="M29.19,42.83c-.54-.68-.87-1.37-1.23-2.1.5.67.92,1.35,1.23,2.1Z"/>
  <path class="st0" d="M21.07,38.22c-.09-.3-.13-.61-.08-.99.12.27.15.55.08.99Z"/>
  <path class="st0" d="M40.59,37.33c-.09-.27-.13-.53-.07-.88.12.23.15.48.07.88Z"/>
  <path class="st0" d="M41.1,39.38c-.09-.23-.12-.46-.06-.77.13.19.14.4.06.77Z"/>
  <path class="st0" d="M26.22,46.69c.19.26.46.47.4.75-.7-.97-1.25-1.93-1.83-2.93.59.63.89,1.43,1.43,2.18Z"/>
  <path class="st0" d="M26.23,47.69c-.61-.65-.93-1.38-1.36-2.09.57.64.96,1.38,1.36,2.09Z"/>
  <path class="st0" d="M39.4,37.54c-.09-.23-.12-.46-.06-.77.13.19.14.4.06.77Z"/>
  <path class="st0" d="M41.68,26.1c-.47-.17-.86-.37-1.27-.63.53.03.89.35,1.27.63Z"/>
  <path class="st0" d="M29.92,38.57c-.12-.1-.11-.29.08-.44.12.1.11.29-.08.44Z"/>
  <path class="st0" d="M39.99,38.04c-.09-.19-.11-.39-.06-.66.13.15.13.33.06.66Z"/>
  <path class="st0" d="M25.77,47.95c-.79-.98-1.64-2.47-2.33-3.66.71.82,1.12,1.81,1.76,2.71.21.29.44.53.57.94Z"/>
  <path class="st0" d="M31.54,25.95c-.15.09-.32.11-.55.05.11-.12.26-.12.55-.05Z"/>
  <path class="st0" d="M49.18,32.09c-.09-.15-.11-.32-.05-.55.12.11.12.26.05.55Z"/>
  <path class="st0" d="M48.58,31.59c-.09-.15-.11-.32-.05-.55.12.11.12.26.05.55Z"/>
  <path class="st0" d="M43.21,39.53c-.09-.15-.11-.32-.05-.55.12.11.12.26.05.55Z"/>
  <path class="st0" d="M47.34,38.35c.22-.03.17-.32.27-.44.25.04.15.23.06.3s-.12.27-.33.14Z"/>
  <path class="st0" d="M41.08,37.84c-.09-.15-.11-.32-.05-.55.12.11.12.26.05.55Z"/>
  <path class="st0" d="M38.85,37.48c-.09-.15-.11-.32-.05-.55.12.11.12.26.05.55Z"/>
  <path class="st0" d="M25.2,44.32c.04-.11.12.03.15.04.06.02.09.19.01.2-.05,0-.22-.1-.17-.24Z"/>
  <path class="st0" d="M24.95,43.9c.04-.11.12.03.15.04.06.02.1.19.01.2-.05,0-.21-.09-.17-.24Z"/>
  <path class="st0" d="M39.97,35.18c-.1-.11-.09-.24-.06-.44.13.05.13.18.06.44Z"/>
  <path class="st0" d="M28.73,44.69c-.24.04-.32-.1-.45-.31.06-.02.16.03.23-.04-.18-.38-.49-.58-.52-.98l1.09,1.71c.09.13.36.16.24.41-.24-.21-.4-.45-.59-.78ZM28.63,44.52s-.04-.07-.08-.06-.07.04-.06.08.04.07.08.06.07-.04.06-.08Z"/>
  <path class="st0" d="M30.6,25.26c-.11.1-.24.09-.44.06.05-.13.18-.13.44-.06Z"/>
  <path class="st0" d="M48.48,32.92c-.1-.11-.09-.24-.06-.44.13.05.13.18.06.44Z"/>
  <path class="st0" d="M49.34,32.62c-.1-.11-.09-.24-.06-.44.13.05.13.18.06.44Z"/>
  <path class="st0" d="M41.08,36.52c-.1-.11-.09-.24-.06-.44.13.05.13.18.06.44Z"/>
  <path class="st0" d="M40.58,38.43c-.1-.11-.09-.24-.06-.44.13.05.13.18.06.44Z"/>
  <path class="st0" d="M49.63,32.16c-.1-.11-.09-.24-.06-.44.13.05.13.18.06.44Z"/>
  <path class="st0" d="M31.98,30.87c.14-.2.19-.44.45-.65-.05.23-.14.5-.45.65Z"/>
  <path class="st0" d="M23.04,39.27c-.1-.11-.09-.24-.06-.44.13.05.13.18.06.44Z"/>
  <path class="st0" d="M48.8,31.91c0,.25-.11.26-.15.01.01-.14.11-.15.15-.01Z"/>
  <path class="st0" d="M22.58,39.5c.04.28-.09.32-.13.07,0-.13.06-.18.13-.07Z"/>
  <path class="st0" d="M49.51,31.19c0,.25-.11.26-.15.01.01-.14.11-.15.15-.01Z"/>
  <path class="st0" d="M39.41,38.06c.04.28-.09.32-.13.07,0-.13.06-.18.13-.07Z"/>
  <path class="st0" d="M49.35,30.61c.04.28-.09.32-.13.07,0-.13.06-.18.13-.07Z"/>
  <path class="st0" d="M48.95,32.4c.04.28-.09.32-.13.07,0-.13.06-.18.13-.07Z"/>
  <path class="st0" d="M41.73,39.33c0,.25-.11.26-.15.01.01-.14.11-.15.15-.01Z"/>
  <path class="st0" d="M48.09,32.63c0,.25-.11.26-.15.01.01-.14.11-.15.15-.01Z"/>
  <path class="st0" d="M49.83,32.44c.04.28-.09.32-.13.07,0-.13.06-.18.13-.07Z"/>
  <circle class="st0" cx="41.01" cy="34.33" r=".07" transform="translate(-2.77 3.61) rotate(-4.88)"/>
  <path class="st0" d="M47.7,33.54c-.27-.37-.52-.68-.83-1.02.38.23.71.56.83,1.02Z"/>
  <path class="st0" d="M28.32,30.54c.09-.27.19-.51.47-.66-.17.22-.22.44-.47.66Z"/>
  <path class="st0" d="M32.57,37.35c-.26-.33-.62-.59-.79-1.11.24.35.59.62.79,1.11Z"/>
  <circle class="st0" cx="41.02" cy="35.76" r=".07" transform="translate(-2.89 3.62) rotate(-4.88)"/>
  <path class="st0" d="M32.91,38.43c-.26-.25-.51-.49-.7-.9.26.27.52.52.7.9Z"/>
  <path class="st0" d="M33.45,38.6c-.3-.35-.58-.69-.79-1.15.31.32.59.66.79,1.15Z"/>
  <path class="st0" d="M29.19,29.14c.32-.38.47-.88.96-1.22-.33.36-.48.87-.96,1.22Z"/>
  <circle class="st0" cx="41.02" cy="37.08" r=".07" transform="translate(-3.01 3.63) rotate(-4.88)"/>
  <circle class="st0" cx="49.72" cy="36.99" r=".07" transform="translate(-2.97 4.37) rotate(-4.88)"/>
  <circle class="st0" cx="48.09" cy="37.35" r=".07" transform="translate(-3 4.23) rotate(-4.88)"/>
  <path class="st0" d="M22.32,33.72c.26-.63.64-1.17,1.12-1.73l-1.12,1.73Z"/>
  <path class="st0" d="M33.89,39.65c-.43-.31-.68-.71-.93-1.12.39.34.63.74.93,1.12Z"/>
  <path class="st0" d="M24.85,33.59c.43-.71.91-1.38,1.52-2.07-.45.69-.92,1.37-1.52,2.07Z"/>
  <path class="st0" d="M27.02,47.28c.7.15-.3-.13-.13-.28.03-.03.1.07.13.09.06.02.1.22,0,.19Z"/>
  <circle class="st0" cx="42.24" cy="38.4" r=".07" transform="translate(-3.11 3.73) rotate(-4.88)"/>
  <path class="st0" d="M34.69,40.26c-.31-.4-.64-.77-.91-1.24.35.35.7.7.91,1.24Z"/>
  <circle class="st0" cx="31.57" cy="27.59" r=".07" transform="translate(-2.23 2.79) rotate(-4.88)"/>
  <path class="st0" d="M27.46,46.92c-.25-.21-.43-.42-.44-.74.17.25.34.47.44.74Z"/>
  <circle class="st0" cx="48.73" cy="38.4" r=".07" transform="translate(-3.09 4.29) rotate(-4.88)"/>
  <path class="st0" d="M27.75,46.54c-.2-.31-.49-.57-.59-1.02.21.3.42.49.59,1.02Z"/>
  <path class="st0" d="M26.64,46.65c.74.15-.32-.13-.13-.28.03-.03.09.08.13.09.1.03.09.21,0,.19Z"/>
  <path class="st0" d="M40.72,26.75c-.17.03-.3-.07-.44-.14.18-.09.3,0,.44.14Z"/>
  <path class="st0" d="M29.39,31.67c.33-.38.49-.82.87-1.15-.26.43-.45.86-.87,1.15Z"/>
  <path class="st0" d="M26.41,46.23c-.27-.36-.51-.71-.69-1.13.32.33.54.65.69,1.13Z"/>
  <path class="st0" d="M29.49,41.25c-.21-.15-.29-.37-.43-.62.24.12.31.32.43.62Z"/>
  <path class="st0" d="M28.12,45.97c.75.15-.32-.12-.13-.29.03-.03.09.08.13.09.07.03.1.21,0,.19Z"/>
  <path class="st0" d="M41.14,26.36c-.27-.06-.51-.18-.79-.31.29-.05.49.07.79.31Z"/>
  <path class="st0" d="M26.81,45.88c-.47-.57-.81-1.14-1.09-1.78.44.57.78,1.16,1.09,1.78Z"/>
  <path class="st0" d="M24.61,43.32c-.38-.43-.65-.86-.84-1.36.35.44.61.88.84,1.36Z"/>
  <path class="st0" d="M25.97,42.54c-.14-.09-.2-.23-.3-.41.19.05.23.18.3.41Z"/>
  <path class="st0" d="M26.27,42.39c.73.15-.32-.13-.13-.28.03-.03.09.08.13.09.06.02.1.21,0,.19Z"/>
  <path class="st0" d="M29.5,42.57c-.06-.12-.23-.22-.18-.43.09.09.21.18.18.43Z"/>
  <path class="st0" d="M24.79,45.5c-.21-.15-.29-.37-.43-.62.24.12.31.32.43.62Z"/>
  <path class="st0" d="M27.62,45.15c-.21-.15-.29-.37-.43-.62.24.12.31.32.43.62Z"/>
  <path class="st0" d="M26.79,43.13c-.21-.15-.29-.37-.43-.62.24.12.31.32.43.62Z"/>
  <path class="st0" d="M22.83,43.34c.74.16-.32-.12-.13-.29.03-.03.09.08.12.09.09.04.09.21,0,.19Z"/>
  <path class="st0" d="M24.46,43.97c-.38-.27-.47-.67-.7-1.02.36.27.47.67.7,1.02Z"/>
  <path class="st0" d="M26.75,43.79c-.25-.21-.43-.42-.44-.74.17.25.34.47.44.74Z"/>
  <path class="st0" d="M24.27,44.76c.73.15-.31-.12-.13-.28.03-.03.09.08.13.09.07.03.1.21,0,.19Z"/>
  <path class="st0" d="M23.09,43.76c.72.15-.31-.13-.13-.28.03-.03.09.08.13.09.07.02.1.22,0,.19Z"/>
  <path class="st0" d="M24.89,43.72c-.07.03-.12-.06-.15-.08-.09-.05-.11-.17.01-.23.04.12.05.16.14.31Z"/>
  <path class="st0" d="M24.72,44.4c-.07.03-.12-.07-.16-.08-.08-.04-.11-.2,0-.21l.15.29Z"/>
  <circle class="st0" cx="26.98" cy="44.16" r=".05" transform="translate(-3.66 2.46) rotate(-4.88)"/>
  <circle class="st0" cx="23.89" cy="44.1" r=".05" transform="translate(-3.67 2.19) rotate(-4.88)"/>
  <circle class="st0" cx="25.64" cy="43.95" r=".05" transform="translate(-3.65 2.34) rotate(-4.88)"/>
  <circle class="st0" cx="26.19" cy="43.9" r=".05" transform="translate(-3.64 2.39) rotate(-4.88)"/>
  <circle class="st0" cx="22.8" cy="44.19" r=".05" transform="translate(-3.68 2.1) rotate(-4.88)"/>
  <circle class="st0" cx="27.16" cy="43.71" r=".05" transform="translate(-3.62 2.47) rotate(-4.88)"/>
  <circle class="st0" cx="26.86" cy="43.95" r=".05" transform="translate(-3.64 2.44) rotate(-4.88)"/>
  <circle class="st0" cx="27.29" cy="43.92" r=".05" transform="translate(-3.64 2.48) rotate(-4.88)"/>
  <circle class="st0" cx="26.06" cy="43.69" r=".05" transform="translate(-3.62 2.38) rotate(-4.88)"/>
  <circle class="st0" cx="25.52" cy="43.74" r=".05" transform="translate(-3.63 2.33) rotate(-4.88)"/>
  <circle class="st0" cx="23.77" cy="43.89" r=".05" transform="translate(-3.65 2.18) rotate(-4.88)"/>
  <circle class="st0" cx="23.22" cy="43.93" r=".05" transform="translate(-3.65 2.14) rotate(-4.88)"/>
  <circle class="st0" cx="22.67" cy="43.98" r=".05" transform="translate(-3.66 2.09) rotate(-4.88)"/>
  <circle class="st0" cx="27.04" cy="43.5" r=".05" transform="translate(-3.6 2.46) rotate(-4.88)"/>
  <circle class="st0" cx="22.93" cy="44.4" r=".05" transform="translate(-3.7 2.11) rotate(-4.88)"/>
  <circle class="st0" cx="24.02" cy="44.31" r=".05" transform="translate(-3.68 2.21) rotate(-4.88)"/>
  <circle class="st0" cx="26.32" cy="44.11" r=".05" transform="translate(-3.66 2.4) rotate(-4.88)"/>
  <circle class="st0" cx="25.39" cy="43.53" r=".05" transform="translate(-3.61 2.32) rotate(-4.88)"/>
  <circle class="st0" cx="23.64" cy="43.68" r=".05" transform="translate(-3.63 2.17) rotate(-4.88)"/>
  <circle class="st0" cx="22.55" cy="43.77" r=".05" transform="translate(-3.64 2.08) rotate(-4.88)"/>
  <circle class="st0" cx="27.89" cy="43.2" r=".05" transform="translate(-3.58 2.53) rotate(-4.88)"/>
  <circle class="st0" cx="26.91" cy="43.29" r=".05" transform="translate(-3.59 2.45) rotate(-4.88)"/>
  <circle class="st0" cx="25.93" cy="43.37" r=".05" transform="translate(-3.6 2.36) rotate(-4.88)"/>
  <circle class="st0" cx="25.26" cy="43.32" r=".05" transform="translate(-3.59 2.31) rotate(-4.88)"/>
  <circle class="st0" cx="23.06" cy="44.61" r=".05" transform="translate(-3.71 2.12) rotate(-4.88)"/>
  <circle class="st0" cx="23.51" cy="43.47" r=".05" transform="translate(-3.61 2.16) rotate(-4.88)"/>
  <circle class="st0" cx="26.45" cy="44.32" r=".05" transform="translate(-3.68 2.41) rotate(-4.88)"/>
  <circle class="st0" cx="28.2" cy="44.17" r=".05" transform="translate(-3.66 2.56) rotate(-4.88)"/>
  <circle class="st0" cx="22.42" cy="43.56" r=".05" transform="translate(-3.63 2.07) rotate(-4.88)"/>
  <circle class="st0" cx="27.11" cy="44.37" r=".05" transform="translate(-3.68 2.47) rotate(-4.88)"/>
  <circle class="st0" cx="27.55" cy="44.33" r=".05" transform="translate(-3.67 2.51) rotate(-4.88)"/>
  <circle class="st0" cx="23.19" cy="44.82" r=".05" transform="translate(-3.73 2.14) rotate(-4.88)"/>
  <circle class="st0" cx="26.57" cy="44.53" r=".05" transform="translate(-3.69 2.42) rotate(-4.88)"/>
  <circle class="st0" cx="25.13" cy="43.11" r=".05" transform="translate(-3.58 2.3) rotate(-4.88)"/>
  <circle class="st0" cx="23.38" cy="43.26" r=".05" transform="translate(-3.6 2.15) rotate(-4.88)"/>
  <circle class="st0" cx="25.49" cy="44.73" r=".05" transform="translate(-3.71 2.33) rotate(-4.88)"/>
  <circle class="st0" cx="27.68" cy="44.54" r=".05" transform="translate(-3.69 2.52) rotate(-4.88)"/>
  <circle class="st0" cx="26.7" cy="44.74" r=".05" transform="translate(-3.71 2.43) rotate(-4.88)"/>
  <circle class="st0" cx="25" cy="42.9" r=".05" transform="translate(-3.56 2.28) rotate(-4.88)"/>
  <circle class="st0" cx="31.52" cy="26.39" r=".05" transform="translate(-2.13 2.78) rotate(-4.88)"/>
  <circle class="st0" cx="25.62" cy="44.94" r=".05" transform="translate(-3.73 2.34) rotate(-4.88)"/>
  <circle class="st0" cx="26.83" cy="44.95" r=".05" transform="translate(-3.73 2.45) rotate(-4.88)"/>
  <circle class="st0" cx="24.88" cy="42.69" r=".05" transform="translate(-3.54 2.27) rotate(-4.88)"/>
  <circle class="st0" cx="23.67" cy="42.79" r=".05" transform="translate(-3.56 2.17) rotate(-4.88)"/>
  <circle class="st0" cx="23.13" cy="42.84" r=".05" transform="translate(-3.56 2.12) rotate(-4.88)"/>
  <circle class="st0" cx="22.58" cy="42.89" r=".05" transform="translate(-3.57 2.08) rotate(-4.88)"/>
  <circle class="st0" cx="24.75" cy="42.48" r=".05" transform="translate(-3.53 2.26) rotate(-4.88)"/>
  <circle class="st0" cx="23.55" cy="42.59" r=".05" transform="translate(-3.54 2.16) rotate(-4.88)"/>
  <circle class="st0" cx="23" cy="42.63" r=".05" transform="translate(-3.54 2.11) rotate(-4.88)"/>
  <circle class="st0" cx="22.45" cy="42.68" r=".05" transform="translate(-3.55 2.07) rotate(-4.88)"/>
  <circle class="st0" cx="26.96" cy="45.16" r=".05" transform="translate(-3.75 2.46) rotate(-4.88)"/>
  <circle class="st0" cx="24.62" cy="42.27" r=".05" transform="translate(-3.51 2.25) rotate(-4.88)"/>
  <circle class="st0" cx="22.32" cy="42.47" r=".05" transform="translate(-3.53 2.05) rotate(-4.88)"/>
  <circle class="st0" cx="27.09" cy="45.36" r=".05" transform="translate(-3.76 2.47) rotate(-4.88)"/>
  <circle class="st0" cx="27.74" cy="45.31" r=".05" transform="translate(-3.76 2.53) rotate(-4.88)"/>
  <circle class="st0" cx="26.02" cy="41.93" r=".05" transform="translate(-3.47 2.37) rotate(-4.88)"/>
  <circle class="st0" cx="25.59" cy="41.97" r=".05" transform="translate(-3.48 2.33) rotate(-4.88)"/>
  <circle class="st0" cx="24.49" cy="42.06" r=".05" transform="translate(-3.49 2.24) rotate(-4.88)"/>
  <circle class="st0" cx="25.89" cy="41.72" r=".05" transform="translate(-3.46 2.36) rotate(-4.88)"/>
  <circle class="st0" cx="27.87" cy="45.52" r=".05" transform="translate(-3.77 2.54) rotate(-4.88)"/>
  <circle class="st0" cx="26.92" cy="46.04" r=".05" transform="translate(-3.82 2.46) rotate(-4.88)"/>
  <circle class="st0" cx="34.24" cy="40.13" r=".05" transform="translate(-3.29 3.06) rotate(-4.88)"/>
  <circle class="st0" cx="34.05" cy="39.87" r=".09" transform="translate(-3.27 3.04) rotate(-4.88)"/>
  <circle class="st0" cx="47.22" cy="38.69" r=".05" transform="translate(-3.12 4.16) rotate(-4.88)"/>
  <circle class="st0" cx="33.66" cy="39.85" r=".05" transform="translate(-3.27 3.01) rotate(-4.88)"/>
  <circle class="st0" cx="31.83" cy="27.46" r=".05" transform="translate(-2.22 2.81) rotate(-4.88)"/>
  <circle class="st0" cx="41.62" cy="38.95" r=".05" transform="translate(-3.16 3.68) rotate(-4.88)"/>
  <circle class="st0" cx="33.42" cy="39.54" r=".05" transform="translate(-3.24 2.99) rotate(-4.88)"/>
  <circle class="st0" cx="42.26" cy="38.68" r=".05" transform="translate(-3.14 3.74) rotate(-4.88)"/>
  <circle class="st0" cx="26.77" cy="46.82" r=".05" transform="translate(-3.89 2.45) rotate(-4.88)"/>
  <circle class="st0" cx="27.86" cy="46.73" r=".05" transform="translate(-3.88 2.54) rotate(-4.88)"/>
  <circle class="st0" cx="33.11" cy="39.18" r=".09" transform="translate(-3.21 2.96) rotate(-4.88)"/>
  <circle class="st0" cx="32.62" cy="39.28" r=".05" transform="translate(-3.22 2.92) rotate(-4.88)"/>
  <circle class="st0" cx="47.91" cy="37.75" r=".05" transform="translate(-3.04 4.21) rotate(-4.88)"/>
  <circle class="st0" cx="32.49" cy="39.07" r=".05" transform="translate(-3.21 2.91) rotate(-4.88)"/>
  <circle class="st0" cx="33.63" cy="38.81" r=".09" transform="translate(-3.18 3) rotate(-4.88)"/>
  <circle class="st0" cx="32.86" cy="38.87" r=".09" transform="translate(-3.19 2.94) rotate(-4.88)"/>
  <circle class="st0" cx="32.37" cy="38.86" r=".05" transform="translate(-3.19 2.9) rotate(-4.88)"/>
  <circle class="st0" cx="32.62" cy="38.56" r=".09" transform="translate(-3.16 2.92) rotate(-4.88)"/>
  <circle class="st0" cx="32.37" cy="38.26" r=".09" transform="translate(-3.14 2.89) rotate(-4.88)"/>
  <path class="st0" d="M28.27,28.77c.11-.15.19-.31.39-.42-.07.18-.16.33-.39.42Z"/>
  <circle class="st0" cx="22.98" cy="38.56" r=".05" transform="translate(-3.2 2.1) rotate(-4.88)"/>
  <circle class="st0" cx="21.1" cy="38.39" r=".05" transform="translate(-3.19 1.93) rotate(-4.88)"/>
  <circle class="st0" cx="38.96" cy="28.39" r=".05" transform="translate(-2.27 3.42) rotate(-4.88)"/>
  <path class="st0" d="M25.5,29.88c.08-.11.13-.22.29-.31-.03.15-.09.25-.29.31Z"/>
  <path class="st0" d="M28.89,29.59c.08-.11.13-.22.29-.31-.03.15-.09.25-.29.31Z"/>
  <circle class="st0" cx="46.84" cy="27.83" r=".05" transform="translate(-2.2 4.09) rotate(-4.88)"/>
  <path class="st0" d="M29.38,30.11c.17-.24.32-.47.58-.66-.14.25-.29.48-.58.66Z"/>
  <circle class="st0" cx="23.35" cy="44.14" r=".05" transform="translate(-3.67 2.15) rotate(-4.88)"/>
  <path class="st0" d="M29.33,34.73c.11-.15.19-.31.39-.42-.07.18-.16.33-.39.42Z"/>
  <circle class="st0" cx="25.05" cy="30.57" r=".05" transform="translate(-2.51 2.24) rotate(-4.88)"/>
  <circle class="st0" cx="47.3" cy="28.73" r=".09" transform="translate(-2.27 4.13) rotate(-4.88)"/>
  <path class="st0" d="M28.96,34.21c.17-.24.32-.47.58-.66-.14.25-.29.48-.58.66Z"/>
  <circle class="st0" cx="46.58" cy="32.47" r=".05" transform="translate(-2.59 4.08) rotate(-4.88)"/>
  <circle class="st0" cx="30.21" cy="33.6" r=".09" transform="translate(-2.75 2.69) rotate(-4.88)"/>
  <circle class="st0" cx="25.42" cy="30.98" r=".05" transform="translate(-2.54 2.28) rotate(-4.88)"/>
  <circle class="st0" cx="24.73" cy="33.85" r=".09" transform="translate(-2.79 2.23) rotate(-4.88)"/>
  <circle class="st0" cx="48.7" cy="28.99" r=".05" transform="translate(-2.29 4.25) rotate(-4.88)"/>
  <circle class="st0" cx="22.2" cy="33.95" r=".09" transform="translate(-2.81 2.01) rotate(-4.88)"/>
  <path class="st0" d="M27.71,31.24c.11-.15.19-.31.39-.42-.07.18-.16.33-.39.42Z"/>
  <circle class="st0" cx="28.81" cy="33.33" r=".05" transform="translate(-2.73 2.57) rotate(-4.88)"/>
  <circle class="st0" cx="29.84" cy="33.08" r=".09" transform="translate(-2.71 2.66) rotate(-4.88)"/>
  <circle class="st0" cx="25.66" cy="33.22" r=".09" transform="translate(-2.73 2.3) rotate(-4.88)"/>
  <path class="st0" d="M30.13,32.57c.08-.11.13-.22.29-.31-.03.15-.09.25-.29.31Z"/>
  <circle class="st0" cx="25.95" cy="32.75" r=".09" transform="translate(-2.69 2.33) rotate(-4.88)"/>
  <path class="st0" d="M47.77,30.88c-.11-.08-.22-.13-.31-.29.15.03.25.09.31.29Z"/>
  <path class="st0" d="M28.81,32.47c.17-.24.32-.47.58-.66-.14.25-.29.48-.58.66Z"/>
  <path class="st0" d="M26.92,32.4c.08-.11.13-.22.29-.31-.03.15-.09.25-.29.31Z"/>
  <circle class="st0" cx="25.83" cy="31.33" r=".09" transform="translate(-2.57 2.31) rotate(-4.88)"/>
  <path class="st0" d="M29.76,32.05c.08-.11.13-.22.29-.31-.03.15-.09.25-.29.31Z"/>
  <circle class="st0" cx="26.34" cy="32.17" r=".09" transform="translate(-2.64 2.36) rotate(-4.88)"/>
  <path class="st0" d="M27.22,31.94c.11-.15.19-.31.39-.42-.07.18-.16.33-.39.42Z"/>
  <path class="st0" d="M23.46,31.81c.08-.11.13-.22.29-.31-.03.15-.09.25-.29.31Z"/>
  <circle class="st0" cx="31.73" cy="31.43" r=".05" transform="translate(-2.56 2.81) rotate(-4.88)"/>
  <path class="st0" d="M30.05,31.59c.17-.24.32-.47.58-.66-.14.25-.29.48-.58.66Z"/>
  <circle class="st0" cx="31.87" cy="31.14" r=".09" transform="translate(-2.53 2.83) rotate(-4.88)"/>
  <circle class="st0" cx="49.35" cy="29.43" r=".09" transform="translate(-2.33 4.31) rotate(-4.88)"/>
  <circle class="st0" cx="27.42" cy="44.13" r=".05" transform="translate(-3.66 2.49) rotate(-4.88)"/>
  <path class="st0" d="M41.1,50.9c-.74-.23-2.08.54-2.66.1l3.03-.32c-.02.23-.2.28-.37.23Z"/>
  <path class="st0" d="M39.63,49.68c-1.53.28-2.69.2-4.27.49.12-.05.27-.21.43-.22,1.32-.07,2.57-.29,3.84-.27Z"/>
  <path class="st0" d="M41.05,50.18c-.8.22-1.58.33-2.45.19.84-.17,1.58-.32,2.45-.19Z"/>
  <path class="st0" d="M39.36,49.16c-1.29.2-2.58.31-3.95.34,1.29-.2,2.58-.31,3.95-.34Z"/>
  <path class="st0" d="M38.99,48.69c.19.24.03.27-.16.21l-3.24.14,3.4-.35Z"/>
  <path class="st0" d="M36.17,50.69c.52-.52.85-.04,2.14-.4.05-.02.17-.04.19.18l-2.33.21Z"/>
  <path class="st0" d="M48.85,45.33c.12-1.2.28-2.33.58-3.53-.03,1.21-.29,2.36-.58,3.53Z"/>
  <path class="st0" d="M39.58,51.67c-1.03.18-2.07.27-3.19.27,1.03-.18,2.07-.27,3.19-.27Z"/>
  <path class="st0" d="M40.84,51.52c-.36.2-.74.24-1.14.09.37-.2.69-.25,1.14-.09Z"/>
  <path class="st0" d="M39.01,52.71c-.52.15-1.06.18-1.66.15.53-.14,1.06-.18,1.66-.15Z"/>
  <path class="st0" d="M38.36,51.03c-.36.31-.73.2-1.04.17.39-.04.67-.29,1.04-.17Z"/>
  <path class="st0" d="M48.45,44.49c0-.81.17-1.57.4-2.37,0,.8-.22,1.57-.4,2.37Z"/>
  <path class="st0" d="M37.31,52.32c-.27.09-.53.13-.88.07.23-.12.48-.15.88-.07Z"/>
  <path class="st0" d="M47.79,44.43c.04-.74.18-1.42.43-2.14-.03.73-.23,1.43-.43,2.14Z"/>
  <path class="st0" d="M34.09,51.74l-.8-.07c.25-.18.55-.1.8.07Z"/>
  <path class="st0" d="M41.72,50.99c.8-.82,1.73-1.43,2.68-2.07-.83.77-1.76,1.38-2.68,2.07Z"/>
  <path class="st0" d="M41.89,50.28c.98-.89,2.06-1.66,3.2-2.41l-3.2,2.41Z"/>
  <path class="st0" d="M35.2,52.05c-.11.1-.24.09-.44.06.05-.13.18-.13.44-.06Z"/>
  <path class="st0" d="M34.86,52.78c.12.05.08.11-.05.14-.26,0-.23-.13.05-.14Z"/>
  <path class="st0" d="M47.39,43.47c-.06-.28.04-.38.07-.57.17.17.02.38-.07.57Z"/>
  <path class="st0" d="M41.63,49.86c.15-.23.35-.37.6-.55-.12.25-.31.39-.6.55Z"/>
  <path class="st0" d="M42.35,49.24c.25-.3.53-.58.92-.78-.26.3-.52.54-.92.78Z"/>
  <path class="st0" d="M44.5,48.85c.96-.7,1.87-1.44,2.92-2.05-.94.73-1.85,1.47-2.92,2.05Z"/>
  <path class="st0" d="M45.91,48.39c.2-.35.57-.5.92-.67-.26.33-.59.41-.92.67Z"/>
  <path class="st0" d="M43.37,48.38c.09-.14.23-.2.41-.3-.05.19-.18.23-.41.3Z"/>
  <path class="st0" d="M45.19,47.78c.09-.14.23-.2.41-.3-.05.19-.18.23-.41.3Z"/>
  <path class="st0" d="M44.2,47.76c.26-.29.57-.51.92-.66-.28.29-.56.47-.92.66Z"/>
  <circle class="st0" cx="34.27" cy="52.78" r=".07" transform="translate(-4.37 3.11) rotate(-4.88)"/>
  <path class="st0" d="M43.72,47.36c.09-.14.23-.2.41-.3-.05.19-.18.23-.41.3Z"/>
  <path class="st0" d="M44.24,46.98c.09-.14.23-.2.41-.3-.05.19-.18.23-.41.3Z"/>
  <circle class="st0" cx="47.73" cy="44.65" r=".07" transform="translate(-3.63 4.22) rotate(-4.88)"/>
  <circle class="st0" cx="47.03" cy="42.89" r=".05" transform="translate(-3.48 4.16) rotate(-4.88)"/>
  <circle class="st0" cx="48.79" cy="45.49" r=".05" transform="translate(-3.69 4.32) rotate(-4.88)"/>
  <circle class="st0" cx="43.56" cy="46.76" r=".09" transform="translate(-3.82 3.88) rotate(-4.88)"/>
  <circle class="st0" cx="45.64" cy="46.7" r=".09" transform="translate(-3.81 4.05) rotate(-4.88)"/>
  <circle class="st0" cx="43.2" cy="47.07" r=".05" transform="translate(-3.85 3.85) rotate(-4.88)"/>
  <circle class="st0" cx="45.34" cy="46.94" r=".09" transform="translate(-3.83 4.03) rotate(-4.88)"/>
  <circle class="st0" cx="47.57" cy="46.7" r=".05" transform="translate(-3.8 4.22) rotate(-4.88)"/>
  <circle class="st0" cx="42.99" cy="47.2" r=".05" transform="translate(-3.86 3.83) rotate(-4.88)"/>
  <circle class="st0" cx="42.73" cy="47.39" r=".09" transform="translate(-3.88 3.81) rotate(-4.88)"/>
  <circle class="st0" cx="46.28" cy="47.03" r=".05" transform="translate(-3.83 4.11) rotate(-4.88)"/>
  <circle class="st0" cx="46.07" cy="47.15" r=".05" transform="translate(-3.85 4.09) rotate(-4.88)"/>
  <circle class="st0" cx="47.82" cy="47.01" r=".05" transform="translate(-3.83 4.24) rotate(-4.88)"/>
  <circle class="st0" cx="43.51" cy="47.54" r=".09" transform="translate(-3.89 3.88) rotate(-4.88)"/>
  <circle class="st0" cx="45.81" cy="47.34" r=".09" transform="translate(-3.86 4.07) rotate(-4.88)"/>
  <circle class="st0" cx="43.25" cy="47.73" r=".05" transform="translate(-3.9 3.85) rotate(-4.88)"/>
  <circle class="st0" cx="43.99" cy="47.94" r=".09" transform="translate(-3.92 3.92) rotate(-4.88)"/>
  <circle class="st0" cx="46.99" cy="47.63" r=".05" transform="translate(-3.88 4.17) rotate(-4.88)"/>
  <circle class="st0" cx="42.64" cy="48.22" r=".05" transform="translate(-3.95 3.8) rotate(-4.88)"/>
  <circle class="st0" cx="42.33" cy="48.46" r=".05" transform="translate(-3.97 3.78) rotate(-4.88)"/>
  <circle class="st0" cx="34.75" cy="51.31" r=".05" transform="translate(-4.24 3.14) rotate(-4.88)"/>
  <circle class="st0" cx="34.37" cy="52.01" r=".05" transform="translate(-4.3 3.11) rotate(-4.88)"/>
  <path class="st0" d="M52.22,51.68c-.36,0-.44.32-.75.2.74-.23-.99-1.24-.97-1.55.64.3.82.95,1.36,1.27.11.06.31-.07.37.08Z"/>
  <path class="st0" d="M39.98,56.27c.97-.75,2.06-1.35,3.12-1.94-1.04.69-1.94,1.43-3.12,1.94Z"/>
  <path class="st0" d="M35.24,56.22c-.45.14-.91.17-1.44.13.45-.14.91-.17,1.44-.13Z"/>
  <path class="st0" d="M39.65,56.01c.48-.5,1.18-.67,1.78-1.1.37-.26.68-.6,1.15-.61-.99.61-1.83,1.25-2.93,1.72Z"/>
  <polygon class="st0" points="38.4 55.46 40.87 53.73 42.87 52.61 38.4 55.46"/>
  <path class="st0" d="M50.43,49.77l2.88-2.6,1.01-.91c-.53.82-1.3,1.35-2.01,1.98-.6.53-1.16,1.06-1.87,1.52Z"/>
  <path class="st0" d="M39.07,55.81c.49-.34,1.11-.48,1.58-.96l2.16-1.28-1.99,1.33c-.55.33-1.03.76-1.75.9Z"/>
  <path class="st0" d="M38.75,55.61l2.47-1.56c-.75.55-1.45,1.11-2.47,1.56Z"/>
  <path class="st0" d="M42.65,54.16c.08-.07.19-.08.29-.2.01.14-.05.28-.29.2Z"/>
  <circle class="st0" cx="49.23" cy="50.63" r=".05" transform="translate(-4.13 4.37) rotate(-4.88)"/>
  <circle class="st0" cx="42.97" cy="53.47" r=".05" transform="translate(-4.39 3.85) rotate(-4.88)"/>
  <circle class="st0" cx="41.36" cy="53.94" r=".05" transform="translate(-4.44 3.72) rotate(-4.88)"/>
  <circle class="st0" cx="35.73" cy="56.29" r=".05" transform="translate(-4.66 3.24) rotate(-4.88)"/>
  <path class="st0" d="M27.54,21.56c.11-.18.27-.32.35-.57l1.82-2.09-1.7,2.09c-.14.2-.17.46-.47.57Z"/>
  <path class="st0" d="M27.21,21.48c.45-.45.65-1.06,1.18-1.47-.41.47-.6,1.07-1.18,1.47Z"/>
  <path class="st0" d="M28.05,22.29c.14-.19.25-.39.48-.54-.11.22-.22.4-.48.54Z"/>
  <path class="st0" d="M19.91,31.57c.08-.11.13-.22.29-.31-.03.15-.09.25-.29.31Z"/>
  <path class="st0" d="M21.24,31.57c.11-.15.19-.31.39-.42-.07.18-.16.33-.39.42Z"/>
  <path class="st0" d="M20.15,31.77c.11-.15.19-.31.39-.42-.07.18-.16.33-.39.42Z"/>
  <circle class="st0" cx="21.73" cy="31.63" r=".05" transform="translate(-2.61 1.96) rotate(-4.88)"/>
  <circle class="st0" cx="21.43" cy="31.98" r=".05" transform="translate(-2.64 1.94) rotate(-4.88)"/>
  <path class="st0" d="M54.38,45.4c0-1.23-.1-1.75-.11-3.18s-.34-2.82-.27-4.28c.23,2.04.41,4.1.53,6.2.02.42.02.86-.15,1.26Z"/>
  <path class="st0" d="M54.06,45.33c-.19-.35-.04-.67-.04-1.01,0-1.01-.33-2.75-.18-3.9.25.31.31,3.91.28,3.79.1.39.05.77-.07,1.11Z"/>
  <path class="st0" d="M54.82,45.15c-.09-1.48-.18-2.59-.23-4.01l-.08-2.36c.31,1.12.21,3.92.34,4.82.08.55.1,1.06-.03,1.55Z"/>
  <path class="st0" d="M53.1,32.96c-.09-.23-.12-.46-.06-.77.13.19.14.4.06.77Z"/>
  <path class="st0" d="M52.76,32.77c-.09-.19-.11-.39-.06-.66.13.15.13.33.06.66Z"/>
  <path class="st0" d="M53.38,32.28c-.09-.15-.11-.32-.05-.55.12.11.12.26.05.55Z"/>
  <path class="st0" d="M53.49,29.62c-.12-.14-.1-.27-.05-.44.1.11.15.25.05.44Z"/>
  <path class="st0" d="M52,32.83c-.1-.11-.09-.24-.06-.44.13.05.13.18.06.44Z"/>
  <path class="st0" d="M53.64,30.16c-.1-.11-.09-.24-.06-.44.13.05.13.18.06.44Z"/>
  <path class="st0" d="M53.65,31.59c-.1-.11-.09-.24-.06-.44.13.05.13.18.06.44Z"/>
  <path class="st0" d="M53.84,30.33c.04.28-.09.32-.13.07,0-.13.06-.18.13-.07Z"/>
  <path class="st0" d="M53.79,40.13c.04.28-.09.32-.13.07,0-.13.06-.18.13-.07Z"/>
  <circle class="st0" cx="53.32" cy="28.93" r=".05" transform="translate(-2.27 4.64) rotate(-4.88)"/>
  <path class="st0" d="M17.88,38.05c-.22-.28-.13-3.02.05-3.42.12.62-.05,1.17-.05,1.79v1.64Z"/>
  <path class="st0" d="M18.58,34.8c.09.33.09,1.93.07,2.21-.17-.78-.19-1.49-.07-2.21Z"/>
  <path class="st0" d="M20.1,46.03c-.16-.67-.21-1.35-.18-2.1.16.67.21,1.36.18,2.1Z"/>
  <path class="st0" d="M18.29,36.59c-.14-.32-.09-.62-.12-.95.13-.31,0-.58.07-.92.18.34.1.72.05,1.11-.03.27.12.49,0,.76Z"/>
  <path class="st0" d="M19.27,37.83c-.1-.34-.14-.68-.09-1.1.13.31.16.62.09,1.1Z"/>
  <path class="st0" d="M18.28,37.8c-.09-.3-.13-.61-.08-.99.12.27.15.55.08.99Z"/>
  <path class="st0" d="M17.55,35.67c-.09-.15-.11-.32-.05-.55.12.11.12.26.05.55Z"/>
  <path class="st0" d="M19.19,43.23c-.1-.11-.09-.24-.06-.44.13.05.13.18.06.44Z"/>
  <path class="st0" d="M18.63,38c-.1-.11-.09-.24-.06-.44.13.05.13.18.06.44Z"/>
  <circle class="st0" cx="18.18" cy="46.84" r=".07" transform="translate(-3.92 1.72) rotate(-4.88)"/>
  <circle class="st0" cx="20.1" cy="46.35" r=".07" transform="translate(-3.87 1.88) rotate(-4.88)"/>
  <circle class="st0" cx="19.23" cy="43.67" r=".07" transform="translate(-3.65 1.8) rotate(-4.88)"/>
  <circle class="st0" cx="18.02" cy="43.61" r=".05" transform="translate(-3.65 1.69) rotate(-4.88)"/>
  <circle class="st0" cx="18.66" cy="38.27" r=".05" transform="translate(-3.19 1.73) rotate(-4.88)"/>
  <circle class="st0" cx="17.6" cy="34.84" r=".05" transform="translate(-2.9 1.62) rotate(-4.88)"/>
  <path class="st0" d="M22.69,51.09c.16.01.31-.12.38-.13.15.12-.05.18-.15.27-.07.06-.2,0-.23-.14Z"/>
  <path class="st0" d="M23.02,50.48c-.24-.17-.47-.32-.66-.58.25.14.48.29.66.58Z"/>
  <circle class="st0" cx="22.74" cy="50.52" r=".09" transform="translate(-4.22 2.12) rotate(-4.88)"/>
  <path class="st0" d="M24.92,52.08c-.24-.17-.47-.32-.66-.58.25.14.48.29.66.58Z"/>
  <circle class="st0" cx="24.5" cy="53.12" r=".09" transform="translate(-4.43 2.28) rotate(-4.88)"/>
  <path class="st0" d="M43.72,22.08c-.14-.11-.32-.07-.43-.26.15.06.34.05.43.26Z"/>
  <circle class="st0" cx="48.87" cy="26.39" r=".09" transform="translate(-2.07 4.25) rotate(-4.88)"/>
  <circle class="st0" cx="43.1" cy="23.36" r=".09" transform="translate(-1.83 3.75) rotate(-4.88)"/>
  <circle class="st0" cx="43.06" cy="22.92" r=".09" transform="translate(-1.79 3.75) rotate(-4.88)"/>
  <circle class="st0" cx="43.74" cy="22.48" r=".05" transform="translate(-1.75 3.8) rotate(-4.88)"/>
  <circle class="st0" cx="43.93" cy="22.14" r=".05" transform="translate(-1.72 3.82) rotate(-4.88)"/>
  <circle class="st0" cx="42.06" cy="20.86" r=".05" transform="translate(-1.62 3.66) rotate(-4.88)"/>
  <path class="st0" d="M31.82,22.73c-.53.14-1.06.18-1.66.15.53-.14,1.06-.18,1.66-.15Z"/>
  <path class="st0" d="M21.49,26.09c-.21-.04-.42-.19-.57-.47.24.04.42.2.57.47Z"/>
  <path class="st0" d="M21.69,25.84c-.09-.11-.29-.01-.33-.24.14-.09.25.05.33.24Z"/>
  <circle class="st0" cx="21.02" cy="26.57" r=".09" transform="translate(-2.18 1.89) rotate(-4.88)"/>
  <path class="st0" d="M26.06,39.12c-.42-.2-.66-.65-1.17-.78.02.6.48,1.05,1.09,1.12-.12.43-1.2-.2-1.3-.98-.03-.21.23-.28.35-.27.18,0,.96.6,1.02.91Z"/>
  <path class="st0" d="M25.98,39.46c.02-.09.1-.16.08-.34.02.1.24.13.14.26-.05.07-.13.08-.22.07Z"/>
  <path class="st0" d="M24.45,37.72c-.12-.16-.12-.43.11-.56l-.11.56Z"/>
  <path class="st0" d="M26.58,38.61l.23-.57c.25-.19.28-.47.5-.68-.03.29-.21.47-.38.67-.15.18-.07.44-.35.58Z"/>
  <circle class="st0" cx="26.69" cy="39.46" r=".05" transform="translate(-3.26 2.41) rotate(-4.88)"/>
  <circle class="st0" cx="26.53" cy="38.81" r=".05" transform="translate(-3.21 2.4) rotate(-4.88)"/>
  <circle class="st0" cx="25.28" cy="37.15" r=".05" transform="translate(-3.07 2.29) rotate(-4.88)"/>
  <path class="st0" d="M26.81,48.62c-.22-.65,1.36,1.29.99,1.04l-.99-1.04Z"/>
  <circle class="st0" cx="27.26" cy="47.99" r=".07" transform="translate(-3.99 2.49) rotate(-4.88)"/>
  <path class="st0" d="M29.5,47.85c-.14-.09-.2-.23-.3-.41.19.05.23.18.3.41Z"/>
  <circle class="st0" cx="27.78" cy="47.73" r=".07" transform="translate(-3.96 2.54) rotate(-4.88)"/>
  <circle class="st0" cx="28.05" cy="47.59" r=".05" transform="translate(-3.95 2.56) rotate(-4.88)"/>
  <circle class="st0" cx="27.52" cy="47.86" r=".05" transform="translate(-3.97 2.52) rotate(-4.88)"/>
  <circle class="st0" cx="26.99" cy="48.12" r=".05" transform="translate(-4 2.47) rotate(-4.88)"/>
  <circle class="st0" cx="26.73" cy="48.31" r=".09" transform="translate(-4.01 2.45) rotate(-4.88)"/>
  <circle class="st0" cx="29.62" cy="48.01" r=".05" transform="translate(-3.98 2.7) rotate(-4.88)"/>
  <circle class="st0" cx="29.75" cy="48.22" r=".05" transform="translate(-4 2.71) rotate(-4.88)"/>
  <circle class="st0" cx="29.94" cy="48.48" r=".09" transform="translate(-4.02 2.72) rotate(-4.88)"/>
  <path class="st0" d="M49.86,40.57c-.08.07-.12.18-.2.17-.08-.4,0-.78-.15-1.17-.12-.13,0-.16.23-.14-.12.37-.05.79.12,1.15Z"/>
  <path class="st0" d="M49.41,41.1c-.13-.41-.16-.84-.12-1.33.13.41.16.84.12,1.33Z"/>
  <path class="st0" d="M49.68,40.92c.04-.16.19-.08.21-.03.03.07,0,.16-.06.19-.04.03-.19,0-.15-.16Z"/>
  <circle class="st0" cx="49.22" cy="39.62" r=".07" transform="translate(-3.19 4.33) rotate(-4.88)"/>
  <path class="st0" d="M45.2,20.66c0,.25-.11.26-.15.01.01-.14.11-.15.15-.01Z"/>
  <circle class="st0" cx="45.52" cy="21.34" r=".05" transform="translate(-1.65 3.95) rotate(-4.88)"/>
  <circle class="st0" cx="55.21" cy="35.59" r=".05" transform="translate(-2.83 4.83) rotate(-4.88)"/>
  <path class="st0" d="M16.9,40.8c-.13-.38-.16-.77-.11-1.22.13.38.16.77.11,1.22Z"/>
  <path class="st0" d="M16.88,39.46c-.1-.34-.14-.68-.09-1.1.13.31.16.62.09,1.1Z"/>
  <path class="st0" d="M16.9,41.24c0,.25-.11.26-.15.01.01-.14.11-.15.15-.01Z"/>
  <circle class="st0" cx="16.78" cy="38.21" r=".05" transform="translate(-3.19 1.57) rotate(-4.88)"/>
  <circle class="st0" cx="49.78" cy="24.83" r=".05" transform="translate(-1.93 4.33) rotate(-4.88)"/>
  <circle class="st0" cx="29.74" cy="44.15" r=".05" transform="translate(-3.65 2.69) rotate(-4.88)"/>
  <circle class="st0" cx="31.31" cy="20.08" r=".07" transform="translate(-1.59 2.74) rotate(-4.88)"/>
  <circle class="st0" cx="50.79" cy="35.42" r=".05" transform="translate(-2.83 4.45) rotate(-4.88)"/>
  <path class="st0" d="M47.27,36.8c-.21.52-.72,1.24-1.18,1-.34-.18.02-1.08.55-1.42.19-.12.36-.17.49-.07.16.12.22.27.14.49ZM47,36.5c-.45-.11-.93.69-.85,1.06.38.24,1.21-.64.85-1.06Z"/>
  <path class="st0" d="M38.77,34.04c-.92,2.21-1.39,2.6-2.25,4.48-.14.3-.62.5-.87.19-1.04-1.26-1.92-2.59-2.88-3.92-.21-.3-.47-.55-.49-.93.16-.56.47-1.05.74-1.58.58-1.15,1.01-2.33,1.73-3.41.13-.19.57-.17.78-.12l2.03,2.74c.34.46.74.86.94,1.4.47.26.46.71.28,1.14ZM36.74,37.56c.55-.85,1.66-3.02,1.96-4.06l-3.26-4.43c-.26-.28-.7.26-.81.48l-2.18,4.52,1.38,1.85c.63.85,1.25,1.65,1.83,2.53.09.13.26.22.35.24.39.07.54-.82.74-1.13Z"/>
  <path class="st0" d="M36.8,35.49c-.08.18-.69,2.5-1.05,1.89-.67-1.13-1.35-2.21-1.89-3.34l1.4-3.98,2.12,3.58c-.1.68-.35,1.24-.58,1.85ZM35.94,37.31l1.28-3.63-1.96-3.23-1.22,3.6,1.9,3.26Z"/>
</svg>