<svg xmlns="http://www.w3.org/2000/svg" viewBox="82.99 218.52 58.57 60.52" fill="currentColor"><path d="M 115.37 248.95 C 115.09 247.82 113.82 246.07 113.21 244.86 C 112.14 242.71 111.52 242.80 110.50 244.64 C 110.11 245.34 109.74 246.01 109.33 246.69 C 108.79 247.62 107.94 248.75 108.53 249.50 C 109.85 250.98 114.72 251.09 115.37 249.05 L 115.37 248.95 Z M 119.30 262.61 C 114.91 262.55 109.77 262.52 104.75 262.61 C 102.28 262.61 99.54 263.08 97.18 262.25 C 92.12 259.41 99.35 253.89 99.47 250.14 C 99.53 249.00 99.10 247.88 98.71 246.80 C 97.82 244.47 97.20 241.55 98.23 240.17 C 99.01 239.10 100.48 239.37 101.19 240.47 C 101.98 241.45 101.98 243.08 102.90 243.78 C 103.17 243.91 103.40 243.81 103.67 243.60 C 104.31 243.07 104.79 242.17 105.27 241.38 C 107.36 238.52 109.54 231.08 113.92 234.57 C 115.50 235.51 119.39 245.27 120.86 243.73 C 121.63 242.81 121.72 241.09 122.59 240.22 C 123.66 238.96 125.36 239.83 125.71 241.25 C 126.71 244.41 123.86 247.63 124.27 250.59 C 124.68 253.17 126.65 255.12 127.55 257.54 C 129.93 263.34 123.75 262.80 119.44 262.62 L 119.30 262.61 Z"/></svg>