<svg xmlns="http://www.w3.org/2000/svg" viewBox="157.05 218.52 58.58 60.52" fill="currentColor"><path d="M 204.29 247.50 C 203.69 244.76 200.95 242.69 198.11 242.79 C 195.89 242.77 193.76 244.14 191.68 244.58 C 190.03 244.79 190.26 243.52 190.80 242.02 C 197.27 229.18 179.52 226.19 179.84 237.57 C 180.02 239.29 180.92 241.15 181.51 242.69 C 181.85 243.56 181.96 244.24 181.63 244.52 C 181.39 244.74 180.94 244.75 180.34 244.60 C 178.00 243.94 175.49 242.45 172.93 242.88 C 166.39 243.81 165.67 253.13 172.09 254.94 C 174.40 255.63 176.74 254.66 178.86 253.83 C 179.78 253.56 181.14 252.84 181.72 253.60 C 181.95 253.97 181.80 254.65 181.47 255.50 C 180.85 257.08 179.97 258.95 179.82 260.68 C 179.76 271.98 197.40 268.72 190.70 255.78 C 190.02 254.00 190.13 252.92 191.97 253.47 C 193.88 254.03 195.98 255.18 198.05 255.24 C 202.05 255.51 205.25 251.50 204.33 247.66 L 204.29 247.50 Z"/></svg>