<svg xmlns="http://www.w3.org/2000/svg" viewBox="229.17 218.52 58.58 60.52" fill="currentColor"><path d="M 261.09 259.41 C 263.66 258.22 265.14 255.73 265.33 253.19 C 265.52 250.54 264.26 248.02 262.04 246.48 C 259.01 244.37 254.97 244.99 252.55 247.56 C 250.12 250.12 249.84 254.10 251.90 256.95 C 253.96 259.80 257.68 260.99 261.09 259.41 Z M 271.03 259.13 C 264.44 265.64 255.30 266.93 247.60 261.39 C 244.99 259.50 242.81 257.34 240.91 254.78 C 238.02 250.89 237.33 243.66 240.54 243.45 C 241.83 243.36 242.69 246.04 244.13 245.13 C 246.30 243.74 244.54 236.38 247.62 235.86 C 248.48 235.71 249.24 236.10 249.62 236.87 L 251.03 239.66 C 251.37 240.34 252.22 241.12 253.07 240.75 C 255.60 239.67 254.46 232.54 257.91 232.44 C 261.37 232.33 260.14 239.99 262.99 240.84 C 263.80 241.08 264.70 240.10 265.00 239.45 L 266.19 236.88 C 266.52 236.17 267.20 235.73 267.96 235.80 C 271.36 236.08 269.47 243.82 271.99 245.29 C 273.19 245.99 273.95 243.08 275.62 243.46 C 276.24 243.60 276.86 244.25 277.08 245.05 C 277.95 248.22 277.06 251.66 275.21 254.41 C 274.01 256.21 272.59 257.60 271.03 259.13 Z"/><path d="M 256.61 257.36 C 254.39 256.74 253.18 254.75 253.13 252.74 C 253.07 250.61 254.46 248.77 256.36 248.10 C 258.43 247.36 260.80 248.14 261.99 250.01 C 263.10 251.76 262.97 253.91 261.87 255.50 C 260.75 257.12 258.70 257.94 256.61 257.36 Z"/></svg>