<svg xmlns="http://www.w3.org/2000/svg" viewBox="302.26 218.52 58.58 60.52" fill="currentColor"><path d="M 341.70 235.17 C 340.07 233.84 337.26 234.51 337.49 236.88 C 337.85 239.09 340.13 240.19 341.11 242.23 C 342.00 243.72 341.54 245.48 339.67 245.78 C 336.57 246.32 333.98 246.41 334.04 242.81 C 333.91 240.31 334.16 237.90 334.26 235.73 C 334.30 234.46 334.02 233.03 332.90 232.29 C 329.29 230.43 323.62 233.27 320.74 235.74 C 312.80 242.49 313.37 255.88 321.69 262.16 C 326.79 266.25 334.34 266.76 339.93 263.38 C 341.74 262.26 344.11 260.55 344.46 258.55 C 344.74 257.03 343.26 255.77 341.82 256.19 C 340.48 256.53 339.48 257.58 338.38 258.34 C 335.34 260.61 330.80 261.36 327.46 259.47 C 325.24 258.20 324.66 254.93 326.37 253.02 C 329.84 249.14 340.23 251.81 345.23 251.23 C 351.63 250.03 345.36 237.31 341.83 235.27 L 341.70 235.17 Z"/><path d="M 328.44 253.82 C 326.39 255.81 328.22 259.32 331.00 259.01 C 332.83 258.88 334.21 256.89 333.68 255.14 C 333.16 252.90 330.12 252.12 328.53 253.73 L 328.44 253.82 Z"/></svg>