<svg xmlns="http://www.w3.org/2000/svg" viewBox="377.30 218.52 58.58 60.52" fill="currentColor"><path d="M 393.51 233.82 L 393.52 233.82 C 395.41 235.37 398.00 236.25 400.60 236.25 L 421.06 236.25 C 422.13 236.25 423.00 237.13 423.00 238.20 L 422.98 240.97 C 422.97 242.04 422.10 242.90 421.03 242.90 C 421.03 242.90 406.90 242.86 405.67 242.86 C 401.19 242.86 398.93 244.81 398.93 248.66 C 398.93 253.71 403.21 254.26 405.05 254.26 C 406.06 254.26 420.89 254.13 421.04 254.13 L 421.04 254.13 C 422.12 254.12 423.00 254.99 423.00 256.07 L 423.00 258.64 C 423.00 259.71 422.13 260.57 421.06 260.57 L 402.05 260.57 C 398.80 260.57 395.71 261.94 393.77 264.23 C 393.37 264.70 392.83 264.92 392.31 264.92 C 391.31 264.92 390.35 264.16 390.35 262.97 L 390.35 235.32 C 390.35 233.69 392.25 232.78 393.51 233.82 Z"/></svg>