<svg xmlns="http://www.w3.org/2000/svg" viewBox="454.29 218.52 58.58 60.52" fill="currentColor"><path d="M 489.26 257.09 C 489.26 253.08 486.19 252.23 482.80 250.48 C 479.24 248.79 478.79 250.33 478.83 253.62 C 478.82 255.88 478.74 257.82 478.90 260.08 C 478.91 262.02 479.28 263.71 479.01 265.49 C 478.66 267.42 476.36 267.93 474.60 267.39 C 473.31 266.96 472.67 265.60 472.80 264.29 C 473.49 254.21 473.23 243.25 473.20 233.16 C 473.21 231.78 472.91 230.30 474.30 229.46 C 476.02 228.52 476.79 229.91 479.31 231.59 C 480.05 232.10 480.76 232.49 481.50 232.87 C 482.19 233.21 486.60 235.41 489.13 236.67 C 491.23 237.74 492.78 238.29 494.00 240.18 C 495.09 241.88 494.97 244.82 495.00 247.07 C 495.02 250.22 495.07 255.49 495.10 258.88 C 495.06 261.15 495.62 263.56 495.16 265.81 C 494.63 267.76 491.93 267.94 490.38 267.18 C 488.53 266.21 489.17 263.16 489.29 260.98 C 489.32 260.35 489.33 259.64 489.36 258.99 C 489.38 258.66 489.40 258.66 489.40 258.81 C 489.41 258.96 489.39 259.05 489.37 258.77 C 489.34 258.60 489.29 257.64 489.27 257.29 L 489.26 257.09 Z"/></svg>