<svg xmlns="http://www.w3.org/2000/svg" viewBox="82.99 336.45 58.57 60.52" fill="currentColor"><path d="M 102.84 369.37 C 99.84 369.29 99.91 364.99 103.02 365.21 C 105.35 365.66 105.34 369.05 102.97 369.36 L 102.84 369.37 Z M 126.33 384.35 C 129.97 383.03 128.52 377.85 125.94 376.10 C 124.20 374.36 119.06 374.27 118.73 371.74 C 119.43 370.13 121.99 370.87 123.49 370.70 C 125.71 370.77 128.55 369.72 128.48 367.21 C 128.03 362.23 121.59 364.92 118.88 363.27 C 117.50 361.03 124.63 359.92 125.92 358.47 C 127.27 357.43 128.27 355.87 128.49 354.17 C 128.86 352.15 127.38 349.75 125.16 350.18 C 123.53 350.47 122.46 352.18 121.03 353.03 C 119.87 353.78 118.49 354.13 117.22 354.68 C 114.86 355.66 113.03 357.55 112.07 359.91 C 111.64 360.71 111.39 362.15 110.51 362.39 C 110.18 362.44 109.78 362.20 109.29 361.79 C 108.09 360.70 106.69 359.46 105.08 358.98 C 98.54 356.71 91.93 363.39 94.12 369.94 C 96.23 376.64 104.67 378.00 109.22 372.93 C 110.12 372.19 110.74 372.09 111.34 373.14 C 112.03 374.40 112.56 376.07 113.51 377.22 C 115.16 379.72 118.34 380.14 120.77 381.45 C 122.56 382.41 123.93 384.86 126.21 384.38 L 126.33 384.35 Z"/></svg>