<svg xmlns="http://www.w3.org/2000/svg" viewBox="157.05 336.45 58.58 60.52" fill="currentColor"><path d="M 191.62 358.26 C 190.11 359.71 188.17 361.78 186.56 363.29 C 184.66 365.23 182.81 363.69 181.39 362.04 C 179.04 360.03 173.14 351.43 170.37 356.31 C 169.97 357.16 169.82 358.21 169.73 359.17 C 169.22 364.93 169.23 370.69 169.68 376.47 C 169.80 378.16 170.17 380.63 172.18 380.89 C 173.61 381.08 175.34 379.72 176.44 378.70 C 177.87 377.34 179.22 375.87 180.64 374.44 C 182.33 372.75 183.26 371.51 184.48 371.47 C 186.18 371.27 187.94 373.91 189.57 375.38 C 192.29 378.16 196.95 383.38 200.91 379.60 C 204.77 374.62 204.31 364.42 202.46 358.69 C 200.36 352.75 195.07 354.72 191.72 358.16 L 191.62 358.26 Z"/></svg>