<svg xmlns="http://www.w3.org/2000/svg" viewBox="229.17 336.45 58.58 60.52" fill="currentColor"><path d="M 273.94 380.48 C 273.81 379.34 272.78 378.55 272.17 377.65 C 271.35 376.64 271.68 374.65 271.60 372.99 C 271.57 369.25 271.54 363.63 271.52 361.49 C 271.67 357.58 270.03 353.59 266.86 351.15 C 259.53 345.05 247.05 348.96 245.39 358.40 C 244.97 360.41 245.08 361.92 245.06 363.99 C 245.05 367.10 245.04 372.04 245.03 374.64 C 245.00 375.61 245.14 376.47 244.70 377.33 C 243.91 378.60 241.90 380.31 243.27 382.04 C 244.47 383.43 246.64 382.91 248.30 383.03 C 254.09 383.54 252.93 378.63 253.03 374.79 C 253.07 373.03 252.95 371.23 253.60 369.79 C 254.56 367.50 257.29 366.25 259.65 366.92 C 268.01 369.28 259.33 382.94 267.32 383.00 C 269.61 382.92 273.73 383.76 273.94 380.60 L 273.94 380.48 Z"/><path d="M 257.06 368.93 C 259.14 368.22 261.13 369.28 261.72 371.06 C 262.37 373.01 261.59 375.18 259.57 375.80 C 257.77 376.35 255.68 375.63 254.95 373.73 C 254.29 372.00 254.89 369.66 257.06 368.93 Z"/></svg>