<svg xmlns="http://www.w3.org/2000/svg" viewBox="302.26 336.45 58.58 60.52" fill="currentColor"><path d="M 346.03 366.53 C 343.57 365.71 340.66 365.57 338.41 364.45 C 336.16 363.33 335.80 360.94 335.23 358.83 C 334.57 356.43 333.98 353.94 333.27 351.59 C 332.52 348.62 327.62 348.96 327.29 352.42 C 327.32 355.40 329.05 358.08 328.97 361.07 C 328.57 361.88 327.71 360.76 327.50 360.38 C 326.06 357.49 325.79 354.24 324.82 351.34 C 324.42 349.71 322.58 348.08 320.35 349.30 C 318.80 350.08 318.46 351.63 318.72 352.86 C 318.96 354.71 320.15 356.65 319.75 358.55 C 319.62 358.73 319.39 358.82 319.07 358.82 C 317.94 358.75 316.70 358.38 315.48 358.67 C 313.22 359.06 311.84 361.88 313.14 363.23 C 314.24 364.40 315.71 364.46 317.50 365.03 C 320.62 365.92 323.81 366.75 326.86 367.68 C 329.26 368.42 331.64 369.18 334.02 369.95 C 335.84 370.53 338.85 370.75 339.08 372.80 C 339.20 373.92 337.47 375.31 336.45 374.70 C 336.10 374.49 335.94 374.13 335.71 373.83 C 334.56 372.34 331.43 372.63 329.70 374.15 C 327.98 375.67 327.62 377.96 328.40 379.65 C 329.19 381.34 330.90 382.52 332.79 383.36 C 334.00 383.90 335.32 384.33 336.74 384.48 C 338.23 384.64 339.81 384.49 341.34 384.09 C 345.71 382.97 349.66 379.70 350.90 376.00 C 352.14 372.30 350.48 368.40 346.85 366.85 C 346.58 366.73 346.31 366.63 346.03 366.53 Z"/></svg>