<svg xmlns="http://www.w3.org/2000/svg" viewBox="377.30 336.45 58.58 60.52" fill="currentColor"><path d="M 406.93 367.76 C 406.17 367.94 405.60 367.23 405.08 366.77 C 404.53 366.23 404.05 365.84 404.35 365.37 C 404.60 364.97 405.01 364.68 405.38 364.35 C 405.84 363.99 406.43 363.34 406.90 363.25 C 407.12 363.22 407.33 363.36 407.62 363.60 C 408.07 364.01 408.65 364.51 409.07 364.96 C 409.82 365.69 409.11 366.15 408.31 366.82 C 407.90 367.14 407.50 367.56 407.01 367.74 L 406.93 367.76 Z M 421.85 352.29 C 417.96 352.61 418.26 358.78 415.60 360.70 C 414.03 361.88 412.29 360.34 411.04 359.31 C 406.41 355.54 399.21 350.90 392.41 351.83 C 386.82 353.58 391.79 361.14 393.24 364.52 C 393.63 365.48 393.84 366.41 393.67 367.41 C 393.02 370.28 389.91 374.13 389.83 377.67 C 389.46 380.09 391.39 382.98 393.75 380.68 C 396.04 378.65 395.71 372.99 399.55 372.93 C 401.60 373.09 404.33 376.00 406.70 377.45 C 410.97 380.14 417.30 383.31 421.87 381.79 C 427.24 378.49 420.12 371.54 420.27 366.94 C 420.34 363.14 424.09 359.34 423.85 355.44 C 423.85 354.14 423.30 352.56 421.94 352.30 L 421.85 352.29 Z"/></svg>