<svg xmlns="http://www.w3.org/2000/svg" viewBox="82.99 455.34 58.57 60.52" fill="currentColor"><path d="M 107.80 495.82 C 106.35 496.32 105.13 497.12 104.08 498.13 C 102.27 499.78 99.08 504.59 97.12 500.78 C 96.12 498.63 96.45 494.27 95.93 491.31 C 95.29 487.37 93.78 479.86 99.34 481.33 C 104.04 483.56 107.21 489.50 113.07 485.75 C 119.73 481.64 115.73 468.24 120.70 468.19 C 123.64 468.45 127.82 470.88 129.17 473.62 C 129.90 476.78 126.57 479.53 125.75 482.48 C 124.10 487.16 126.38 492.48 126.42 497.16 C 126.58 499.32 125.55 503.14 122.94 501.59 C 121.37 500.75 119.98 498.23 118.44 496.80 C 115.58 494.31 111.32 494.83 107.95 495.77 L 107.80 495.82 Z"/><path d="M 109.27 476.86 C 114.10 476.45 115.20 483.80 110.57 485.13 C 105.13 486.45 103.56 477.74 109.11 476.87 L 109.27 476.86 Z"/></svg>