<svg xmlns="http://www.w3.org/2000/svg" viewBox="157.05 455.34 58.58 60.52" fill="currentColor"><path d="M 187.17 491.90 C 188.81 487.09 194.84 477.73 185.96 475.90 C 183.06 475.25 179.17 475.48 176.24 475.24 C 175.06 475.09 174.03 475.03 173.51 474.20 C 173.02 471.90 177.40 469.01 181.75 468.00 C 191.45 465.64 202.38 473.42 199.90 482.89 C 199.37 485.31 198.08 487.74 196.32 489.67 C 194.44 492.26 185.76 497.20 187.14 492.00 L 187.17 491.90 Z"/><path d="M 195.34 496.91 C 202.29 497.22 195.56 502.65 191.52 503.76 C 188.91 504.60 185.80 504.77 182.94 504.16 C 171.49 501.75 167.87 490.04 175.62 482.17 C 178.88 479.01 182.25 477.35 184.41 478.11 C 185.87 479.33 183.61 482.50 183.07 484.30 C 182.39 485.93 181.69 487.72 181.35 489.35 C 179.47 497.64 189.25 496.74 195.20 496.90 L 195.34 496.91 Z"/></svg>