<svg xmlns="http://www.w3.org/2000/svg" viewBox="229.17 455.34 58.58 60.52" fill="currentColor"><path d="M 255.01 490.73 C 254.75 490.73 254.46 490.80 254.13 490.95 C 253.76 491.13 253.40 491.38 253.05 491.62 C 252.44 492.05 251.80 492.50 251.13 492.53 C 251.09 492.53 251.05 492.53 251.01 492.53 C 250.67 492.53 250.48 492.34 250.40 492.22 C 250.24 491.97 250.21 491.63 250.36 491.30 C 250.69 490.36 251.51 489.59 252.29 488.85 C 253.11 488.07 253.95 487.27 254.34 486.20 C 254.87 484.18 253.41 482.79 252.12 481.57 C 251.46 480.95 250.83 480.36 250.46 479.68 C 250.18 479.27 250.12 478.79 250.30 478.46 C 250.43 478.22 250.67 478.10 250.99 478.10 C 251.07 478.10 251.16 478.11 251.25 478.12 L 251.40 478.13 C 251.74 478.13 252.39 478.59 252.91 478.97 C 253.66 479.50 254.36 480.00 255.06 480.00 C 255.35 480.00 255.90 479.90 256.28 479.18 C 256.52 478.58 256.59 477.89 256.65 477.23 C 256.73 476.32 256.81 475.46 257.33 474.97 C 257.52 474.79 257.72 474.70 257.90 474.70 C 258.46 474.70 259.10 475.63 259.12 476.47 C 259.16 478.17 259.39 479.90 260.77 479.90 C 261.41 479.90 262.06 479.47 262.75 479.01 C 263.41 478.58 264.15 478.08 264.75 478.08 C 264.93 478.08 265.19 478.12 265.49 478.43 C 265.80 479.59 265.00 480.44 263.65 481.66 C 262.52 482.70 261.34 483.77 261.32 485.35 C 261.37 486.78 262.50 487.88 263.59 488.94 C 264.41 489.74 265.26 490.56 265.56 491.46 C 265.66 491.77 265.64 492.04 265.49 492.24 C 265.33 492.46 265.04 492.59 264.72 492.59 C 264.56 492.59 264.41 492.56 264.24 492.50 L 264.05 492.44 C 263.65 492.31 263.26 492.03 262.85 491.73 C 262.26 491.30 261.64 490.85 260.86 490.75 L 260.76 490.74 L 260.66 490.76 C 259.34 491.04 259.28 492.34 259.23 493.30 C 259.22 493.59 259.20 493.87 259.15 494.16 C 259.03 495.19 258.75 495.77 258.27 496.03 C 258.15 496.09 258.03 496.12 257.92 496.12 C 257.30 496.12 256.74 495.09 256.69 494.19 C 256.67 494.02 256.65 493.80 256.64 493.56 C 256.57 492.50 256.46 490.73 255.01 490.73 Z M 269.56 473.95 C 266.38 470.73 262.02 468.89 257.51 468.89 L 257.15 468.89 C 251.61 468.89 246.44 471.71 243.30 476.44 C 240.17 481.17 239.65 486.93 241.91 491.85 C 244.70 498.04 250.43 501.74 257.22 501.74 C 265.24 501.74 273.95 496.14 274.28 485.77 C 274.45 481.46 272.72 477.15 269.56 473.95 Z"/></svg>