<svg xmlns="http://www.w3.org/2000/svg" viewBox="377.30 455.34 58.58 60.52" fill="currentColor"><path d="M 407.34 485.53 C 406.42 484.34 406.34 482.41 407.87 482.09 C 408.70 481.96 409.75 482.93 410.04 483.89 C 410.72 486.05 408.42 487.42 407.40 485.64 L 407.34 485.53 Z M 427.08 485.09 C 426.06 484.08 424.15 483.44 422.36 483.29 C 420.77 483.08 417.95 484.13 418.27 482.09 C 418.41 481.13 418.75 480.13 419.60 479.38 C 420.38 478.70 421.67 478.24 422.32 477.47 C 422.89 476.86 422.80 475.94 421.84 475.58 C 419.99 474.99 416.67 475.61 415.02 476.37 C 414.28 476.71 413.77 477.27 413.04 477.62 C 412.41 477.91 411.82 477.59 411.37 477.24 C 410.75 476.73 410.14 476.19 409.73 475.58 C 408.91 474.46 409.55 473.12 409.07 471.92 C 408.80 471.09 407.59 470.56 406.52 470.97 C 404.96 471.49 403.91 472.97 403.67 474.31 C 403.35 475.58 404.60 477.64 401.81 477.53 C 400.51 477.48 399.13 477.29 398.06 476.71 C 397.04 476.18 396.42 475.19 395.29 474.77 C 394.59 474.49 393.66 474.44 392.98 474.77 C 391.00 475.88 392.42 478.05 393.81 479.29 C 394.75 480.21 397.02 481.16 396.00 482.49 C 395.61 482.95 394.93 483.24 394.29 483.49 C 393.28 483.86 392.24 484.25 391.15 484.24 C 389.55 484.19 387.44 483.55 386.83 485.03 C 386.18 486.88 389.32 488.40 391.65 488.63 C 393.00 488.95 396.02 487.36 395.96 489.22 C 395.79 490.33 395.07 491.52 394.14 492.41 C 393.04 493.35 390.94 494.32 391.78 495.78 C 392.99 497.56 396.47 496.80 398.25 495.87 C 398.88 495.55 399.36 495.12 399.85 494.70 C 401.59 493.13 403.23 495.00 403.90 496.26 C 404.98 497.88 402.70 500.80 406.21 501.17 C 408.79 501.17 410.28 498.83 410.53 497.15 C 410.63 496.45 410.40 495.72 410.45 495.03 C 410.52 493.67 412.50 493.80 413.81 494.33 C 414.77 494.70 415.60 495.22 416.32 495.80 C 417.51 496.89 419.58 498.47 421.31 497.00 C 422.47 495.83 421.49 493.65 420.15 492.40 C 419.54 491.83 418.80 491.30 418.38 490.64 C 417.21 488.93 420.86 487.63 422.74 487.80 C 423.75 487.90 424.94 488.36 425.92 488.16 C 427.58 487.83 428.02 486.10 427.12 485.13 L 427.08 485.09 Z"/></svg>