<svg xmlns="http://www.w3.org/2000/svg" viewBox="454.29 455.34 58.58 60.52" fill="currentColor"><path d="M 500.06 479.99 C 495.83 466.46 476.85 463.20 469.24 475.51 C 462.53 486.34 472.67 501.29 485.27 497.24 C 491.42 495.36 495.77 488.23 493.43 481.99 C 491.87 477.42 487.06 474.16 482.23 474.82 C 474.79 475.50 471.15 485.97 478.17 489.96 C 481.97 492.26 487.75 488.93 486.39 484.35 C 485.91 482.83 484.19 481.85 483.02 482.82 C 482.36 483.37 482.25 484.40 481.73 485.04 C 480.73 486.07 479.49 484.52 479.62 483.24 C 479.71 481.22 481.68 479.77 483.66 479.94 C 486.32 480.05 488.46 482.43 488.77 484.99 C 489.35 489.01 485.45 492.73 481.49 492.75 C 476.92 492.94 472.92 488.95 472.37 484.56 C 471.14 475.86 481.00 470.44 488.39 474.01 C 493.18 476.06 496.19 481.54 495.81 486.66 C 495.50 493.31 489.42 498.27 483.13 499.11 C 480.70 499.40 479.68 502.35 482.19 503.43 C 482.96 503.74 483.90 503.71 484.74 503.62 C 496.01 502.63 503.78 490.80 500.11 480.14 L 500.06 479.99 Z"/></svg>