<svg xmlns="http://www.w3.org/2000/svg" viewBox="82.99 569.36 58.57 60.52" fill="currentColor"><path d="M 103.62 606.67 C 102.05 607.53 100.56 608.55 98.75 608.70 C 95.81 608.94 92.11 606.28 91.75 603.82 C 91.28 600.66 94.62 597.26 97.04 595.41 C 102.89 590.96 109.62 594.42 116.49 594.73 C 118.75 594.81 120.89 594.20 122.58 593.17 C 123.73 592.51 124.94 591.58 126.26 591.17 C 131.14 589.81 131.56 595.88 132.16 598.06 C 132.55 600.09 132.18 602.19 131.23 604.16 C 128.31 610.70 122.33 608.29 116.33 606.51 C 112.65 605.42 108.52 604.59 104.98 606.02 C 104.52 606.21 104.07 606.43 103.62 606.67 Z"/></svg>