<svg xmlns="http://www.w3.org/2000/svg" viewBox="157.05 569.36 58.58 60.52" fill="currentColor"><path d="M 186.17 587.35 C 191.47 587.14 191.17 579.29 185.84 579.55 C 180.94 580.04 181.10 587.08 186.01 587.35 L 186.17 587.35 Z"/><path d="M 203.77 597.87 C 202.68 595.98 199.44 595.87 197.26 595.97 C 196.06 595.95 190.20 596.71 191.75 594.42 C 192.78 593.06 197.02 590.84 197.93 588.18 C 199.34 583.69 195.04 584.34 192.34 586.14 C 189.91 587.61 187.09 588.91 184.21 588.10 C 181.48 587.76 175.10 581.68 174.06 586.65 C 173.91 589.66 177.37 591.81 179.36 593.42 C 183.54 596.61 177.40 596.01 175.20 595.95 C 173.55 595.90 171.87 595.87 170.34 596.41 C 167.45 597.35 167.67 600.72 170.42 601.56 C 172.16 602.92 184.69 600.28 179.42 604.66 C 177.82 605.95 175.25 607.60 174.40 609.67 C 173.53 611.30 174.15 613.54 176.21 613.34 C 179.30 613.03 182.04 609.83 185.43 609.67 C 189.17 609.13 192.17 612.36 195.49 613.23 C 198.00 613.87 199.00 611.41 198.03 609.53 C 197.03 607.14 193.39 605.31 192.22 603.84 C 190.50 601.70 194.71 601.95 195.95 601.98 C 198.15 602.09 200.49 602.21 202.12 601.46 C 203.49 600.92 204.55 599.39 203.82 597.97 L 203.77 597.87 Z"/><path d="M 186.16 611.56 C 181.31 611.63 180.83 618.57 185.63 619.30 C 191.04 619.85 191.68 611.95 186.31 611.56 L 186.16 611.56 Z"/></svg>