<svg xmlns="http://www.w3.org/2000/svg" viewBox="229.17 569.36 58.58 60.52" fill="currentColor"><path d="M 270.52 616.27 C 274.52 615.18 274.21 611.21 271.54 609.11 C 269.10 606.83 265.62 605.76 262.77 603.99 C 261.95 603.52 261.11 603.07 260.19 602.77 C 258.51 602.16 256.29 602.26 254.96 601.51 C 253.35 600.62 253.95 598.95 255.61 598.25 C 257.12 597.57 258.99 597.48 260.67 597.19 C 265.95 596.40 270.81 593.80 272.89 589.68 C 273.64 588.20 273.79 586.24 272.30 585.08 C 267.48 582.05 263.75 587.91 259.51 589.15 C 254.33 590.68 247.98 590.38 244.08 594.13 C 238.13 599.32 241.67 607.65 249.91 609.65 C 253.05 610.62 257.21 610.07 259.86 611.08 C 263.46 612.70 264.75 617.59 270.32 616.32 L 270.52 616.27 Z"/></svg>