<svg xmlns="http://www.w3.org/2000/svg" viewBox="302.26 569.36 58.58 60.52" fill="currentColor"><path d="M 332.02 612.54 C 331.59 612.74 329.03 610.69 329.57 607.05 C 330.34 604.31 331.31 602.15 332.24 602.18 C 333.08 602.49 333.87 604.80 334.66 606.65 C 334.78 607.03 334.99 607.65 334.97 608.48 C 334.88 610.93 332.69 612.43 332.05 612.53 L 332.02 612.54 Z M 331.73 595.01 C 330.81 595.07 325.46 594.40 326.47 593.13 C 328.13 592.14 330.22 591.41 332.21 591.40 C 334.15 591.56 336.09 592.36 337.85 593.19 C 339.33 594.43 332.99 594.96 331.83 595.01 L 331.73 595.01 Z M 343.44 597.36 C 343.11 594.92 345.52 590.21 343.53 588.95 C 342.45 588.34 341.10 588.75 339.91 588.75 C 336.43 589.10 337.00 585.24 336.15 582.99 C 335.24 579.79 330.85 578.72 328.94 581.58 C 327.56 583.29 328.06 585.87 326.89 587.63 C 325.68 589.24 323.34 588.34 321.67 588.82 C 319.13 589.58 320.79 592.91 321.01 595.69 C 321.55 599.64 318.84 603.49 319.74 607.37 C 321.48 612.25 326.36 617.49 331.49 618.34 C 337.21 618.66 343.04 612.56 344.68 607.45 C 345.56 604.21 343.69 600.81 343.45 597.53 L 343.44 597.36 Z"/></svg>