<svg xmlns="http://www.w3.org/2000/svg" viewBox="377.30 569.36 58.58 60.52" fill="currentColor"><path d="M 414.58 606.09 C 415.59 606.43 417.40 610.14 415.81 610.59 C 414.53 610.81 411.73 609.56 411.81 608.34 C 412.00 607.25 413.34 605.96 414.44 606.06 L 414.58 606.09 Z M 397.68 606.38 C 398.61 606.45 400.66 608.29 399.74 609.29 C 398.98 610.08 396.71 610.96 396.09 610.23 C 395.37 609.30 396.55 606.69 397.56 606.39 L 397.68 606.38 Z M 416.05 591.35 C 415.84 592.52 415.28 594.32 413.94 594.60 C 412.92 594.68 411.33 593.09 411.48 591.97 C 411.85 590.53 416.08 588.73 416.06 591.19 L 416.05 591.35 Z M 403.08 599.71 C 403.19 598.62 404.59 597.27 405.70 597.21 C 407.01 597.20 408.36 598.58 408.42 599.89 C 408.42 601.03 406.96 602.51 405.78 602.54 C 404.48 602.52 403.16 601.09 403.07 599.86 L 403.08 599.71 Z M 396.12 590.45 C 397.23 590.07 400.22 591.25 400.21 592.68 C 400.07 593.62 398.59 595.08 397.56 594.71 C 396.49 594.22 395.23 591.45 396.03 590.51 L 396.12 590.45 Z M 421.66 600.25 C 421.88 594.22 425.01 585.88 416.76 584.03 C 413.04 583.37 408.87 585.02 404.99 584.68 C 400.66 584.45 395.39 582.40 391.81 585.80 C 387.71 589.88 390.75 595.97 390.41 601.12 C 390.01 606.61 387.65 614.48 394.89 616.43 C 398.72 617.34 402.72 615.65 406.61 615.87 C 411.50 616.05 417.53 618.61 421.02 614.06 C 424.00 610.09 421.59 604.90 421.66 600.43 L 421.66 600.25 Z"/></svg>