<svg xmlns="http://www.w3.org/2000/svg" viewBox="454.29 569.36 58.58 60.52" fill="currentColor"><path d="M 502.21 597.70 C 497.26 595.48 495.56 589.47 490.27 587.65 C 484.71 585.35 477.74 586.91 473.91 591.41 C 473.13 592.33 472.33 593.73 472.46 594.87 C 472.54 595.77 473.24 596.26 474.22 596.15 C 475.90 596.30 480.54 591.62 480.89 595.15 C 479.80 599.77 470.89 597.67 467.08 598.58 C 465.52 598.75 462.70 599.66 463.74 601.55 C 464.65 602.97 466.73 603.61 468.33 604.84 C 469.44 605.66 470.31 606.68 471.17 607.77 C 473.47 611.04 476.93 613.67 481.12 614.14 C 486.69 614.91 494.57 611.82 495.61 606.32 C 495.24 602.85 491.16 605.96 489.37 606.74 C 488.11 607.29 486.98 606.99 487.04 605.73 C 487.17 604.45 488.44 603.53 489.71 603.17 C 493.99 602.00 499.03 603.40 503.24 601.53 C 505.23 600.44 503.98 598.66 502.35 597.79 L 502.21 597.70 Z"/></svg>