<svg xmlns="http://www.w3.org/2000/svg" viewBox="229.17 686.71 58.58 60.52" fill="currentColor"><path d="M 261.31 733.27 C 260.33 737.72 254.51 736.36 254.93 731.90 C 255.19 728.31 255.56 723.96 251.74 721.66 C 250.83 721.02 249.92 720.51 249.03 719.89 C 244.10 716.54 240.98 710.05 242.13 704.15 C 242.73 701.86 246.02 701.27 247.27 703.27 C 248.25 704.74 248.10 706.83 248.56 708.55 C 250.65 718.03 263.37 719.44 267.32 710.52 C 268.93 707.78 267.30 701.70 272.01 702.06 C 276.31 702.98 274.29 710.39 273.05 713.20 C 272.05 715.47 270.52 717.50 268.66 719.01 C 266.75 720.74 264.07 721.62 262.52 723.73 C 260.58 726.36 261.62 729.98 261.33 733.13 L 261.31 733.27 Z"/><path d="M 262.78 708.88 C 261.50 715.06 252.30 713.03 253.64 706.85 C 255.16 701.04 263.69 702.69 262.80 708.72 L 262.78 708.88 Z"/></svg>