<svg xmlns="http://www.w3.org/2000/svg" viewBox="302.26 686.71 58.58 60.52" fill="currentColor"><path d="M 320.25 727.96 C 318.19 726.45 315.71 725.35 314.57 722.92 C 311.66 715.74 314.80 706.12 321.72 702.83 C 325.36 701.52 323.59 705.70 323.64 708.06 C 323.53 710.93 325.81 713.91 328.71 713.98 C 331.51 714.17 333.73 711.52 333.96 708.79 C 334.30 706.97 333.79 704.70 335.04 703.21 C 335.99 702.22 338.31 702.96 340.33 702.64 C 341.92 702.66 344.86 700.36 345.85 702.02 C 346.46 702.99 346.77 705.42 347.47 707.02 C 348.17 708.79 349.38 710.32 350.30 711.97 C 352.79 716.78 348.91 717.22 345.31 716.80 C 342.78 716.57 340.35 717.68 339.18 720.03 C 338.00 722.22 338.29 724.89 339.22 727.15 C 339.75 728.61 340.47 730.09 340.29 731.63 C 339.87 734.44 336.32 735.07 333.52 734.99 C 327.93 734.92 324.33 731.39 320.35 728.04 L 320.25 727.96 Z"/></svg>